<svg width="489" height="508" viewBox="0 0 489 508" fill="none" xmlns="http://www.w3.org/2000/svg">
<path d="M193.406 146.38H306.422L406.422 360.465H93.4062L193.406 146.38Z" fill="url(#paint0_linear_936_1012)"/>
<path d="M315.457 349.68C314.79 353.537 303.93 356.478 298.584 357.467C297.75 357.467 295.174 356.54 291.54 352.832C286.998 348.197 287.832 336.98 290.243 335.868C292.171 334.978 293.455 336.548 293.856 337.444C294.227 335.559 295.414 331.789 297.194 331.789C298.974 331.789 299.605 334.879 299.697 336.424C300.037 334.385 301.292 330.603 303.591 331.789C306.464 333.272 307.113 345.972 307.855 346.528C308.596 347.085 316.291 344.86 315.457 349.68Z" fill="#FEE6CA"/>
<path d="M333.056 394.867C329.496 397.24 325.547 404.57 324.017 407.938C323.322 408.865 321.653 418.598 323.414 419.34C325.176 420.082 337.829 423.233 339.173 422.075C340.518 420.916 343.345 395.701 342.047 393.801C340.749 391.901 337.505 391.901 333.056 394.867Z" fill="#445066"/>
<path d="M308.584 390.093C298.869 387.869 287.047 391.638 282.35 393.801C278.643 393.801 277.9 412.805 281.7 413.268C285.501 413.732 323.137 421.426 324.25 421.055C325.362 420.684 328.607 401.125 327.958 400.012C327.309 398.9 320.727 392.874 308.584 390.093Z" fill="#E874A7"/>
<path d="M325.585 416.919C316.45 410.708 298.094 400.477 291.063 404.925C287.095 407.436 283.831 410.503 281.434 413.203C281.52 413.235 281.609 413.257 281.701 413.268C283.243 413.456 290.351 414.834 298.331 416.38C310.025 418.647 323.589 421.275 324.25 421.055C324.568 420.949 325.06 419.278 325.585 416.919Z" fill="#D5588F"/>
<path d="M215.234 388.054C218.385 378.413 231.92 377.671 239.892 373.963C243.909 371.059 253.242 365.843 258.433 368.216C264.922 371.182 296.625 391.576 297.923 395.099C299.221 398.622 285.13 401.773 271.596 411.043C258.062 420.313 256.764 415.215 248.421 424.578C244.713 425.505 248.421 439.039 235.442 425.69C218.015 413.639 212.082 397.695 215.234 388.054Z" fill="#FBBC05"/>
<path d="M242.447 386.941C249.493 384.049 251.747 378.877 251.994 376.652L230.951 383.697C231.847 385.984 235.401 389.834 242.447 386.941Z" fill="#DBBB95"/>
<path d="M303.855 457.949C300.666 458.394 292.701 449.359 289.117 444.786C288.487 443.993 302.279 434.589 306.08 430.696C309.881 426.802 320.17 425.319 321.932 428.193C323.693 431.067 307.841 457.393 303.855 457.949Z" fill="#445066"/>
<path d="M257.783 436.629C247.549 435.22 242.519 431.16 241.283 429.306L252.315 414.103C258.618 411.353 274.451 406.019 287.355 406.687C303.485 407.521 307.471 427.359 307.842 429.584C308.213 431.808 290.878 446.455 288.282 446.269C285.687 446.084 280.588 439.873 276.695 436.629C272.801 433.384 270.576 438.39 257.783 436.629Z" fill="#E874A7"/>
<path d="M247.173 423.651C264.971 429.584 281.904 417.718 288.146 411.044C283.14 409.375 272.351 405.889 269.236 405.296C265.342 404.555 224.925 416.235 247.173 423.651Z" fill="#D5588F"/>
<path d="M277.668 370.898C273.222 373.482 270.398 381.843 269.186 383.79C260.621 382.835 250.96 368.442 258.897 361.82C266.833 355.198 282.173 342.906 289.191 341.307C296.209 339.708 306.894 350.768 303.023 356.072C299.151 361.376 284.116 367.152 277.668 370.898Z" fill="#FBBC05"/>
<path d="M289.023 348.008C291.434 347.946 296.922 349.602 299.592 356.721" stroke="#E88D24" stroke-width="2" stroke-linecap="round"/>
<path d="M226.088 417.809C221.162 412.712 217.87 407.349 216.074 402.305L229.695 398.529C228.295 401.589 225.967 409.112 226.088 417.809Z" fill="#FFA53A"/>
<path d="M202.441 392.874C214.01 388.276 224.443 388.425 228.213 389.073C238.133 397.324 229.14 404.091 223.485 406.594C214.587 410.024 204.573 426.061 197.25 425.412C189.927 424.763 175.374 414.659 178.99 407.799C182.605 400.939 187.981 398.622 202.441 392.874Z" fill="#FBBC05"/>
<path d="M182.418 403.628C185.57 402.762 192.985 403.702 197.436 414.381" stroke="#E88D24" stroke-width="2" stroke-linecap="round"/>
<path d="M203.184 423.69C202.443 429.438 189.001 432.497 185.942 433.794C168.236 439.264 163.926 419.101 164.111 414.884C164.343 409.6 167.68 413.007 168.236 413.377C169.113 413.962 169.696 415.394 169.533 408.766C169.372 402.215 174.325 402.508 175.281 404.779C176.023 406.541 178.711 414.328 178.155 409.6C177.599 404.872 178.989 400.423 182.327 402.277C185.664 404.131 186.266 410.573 188.073 415.811C189.314 419.405 192.616 421.28 194.563 420.631C196.51 419.982 203.926 417.943 203.184 423.69Z" fill="#FEE6CA"/>
<path d="M172.736 421.519C174.343 421.148 179.115 421.111 185.344 423.929" stroke="#C39A6A" stroke-width="1.4" stroke-linecap="round"/>
<path d="M230.808 394.543C222.576 390.316 216.007 390.557 213.751 391.206C211.898 387.868 219.777 381.287 230.809 382.677C241.84 384.068 250.923 392.411 250.46 395.655C249.996 398.9 246.844 401.588 244.342 401.588C241.839 401.588 241.097 399.827 230.808 394.543Z" fill="#EC4E56"/>
<path d="M255.698 377.65C247.467 373.423 240.898 373.664 238.642 374.313C236.788 370.975 244.668 364.394 255.699 365.784C266.731 367.175 275.814 375.518 275.35 378.762C274.887 382.007 271.735 384.695 269.232 384.695C266.729 384.695 265.988 382.934 255.698 377.65Z" fill="#EC4E56"/>
<path d="M252.87 384.716C260.842 380.267 262.51 373.036 264.549 371.739C267.33 368.68 280.216 379.989 284.295 382.863C288.374 385.736 294.956 386.2 298.849 385.551C302.742 384.902 304.133 386.663 303.206 390.927C302.279 395.192 299.034 406.686 284.295 412.712C269.556 418.737 260.379 420.406 254.075 421.24C247.771 422.075 246.195 433.106 244.805 433.199C243.414 433.291 237.018 429.954 236.647 427.822C236.277 425.69 241.004 418.83 239.336 412.712C237.667 406.594 234.794 399.641 232.848 395.377C234.516 391.484 244.897 389.166 252.87 384.716Z" fill="#EC4E56"/>
<rect x="281.947" y="394.488" width="9.75328" height="2.77608" transform="rotate(-48.6284 281.947 394.488)" fill="#FF9FA4"/>
<rect x="260.039" y="415.702" width="10.9945" height="2.77608" transform="rotate(-42.9563 260.039 415.702)" fill="#FF9FA4"/>
<path d="M262.017 393.781L262.017 393.781C264.469 391.969 266.946 391.321 267.169 392.752C267.597 395.744 262.885 400.977 266.192 402.92C269.769 404.399 272.262 394.157 269.313 391.19C266.982 388.845 263.56 392.248 262.017 393.781Z" fill="white"/>
<path d="M262.024 393.774C262.022 393.776 262.02 393.778 262.018 393.78C264.469 391.969 266.947 391.321 267.169 392.751C267.244 393.272 267.162 393.862 266.994 394.49C267.015 394.418 267.039 394.336 267.065 394.246C267.401 393.103 268.133 390.612 266.585 390.515C264.816 391.001 263.027 392.777 262.024 393.774Z" fill="#C2D9FF"/>
<path d="M256.906 396.209C259.394 398.711 263.844 396.313 265.717 395.073C262.598 396.309 259.716 396.536 259.396 394.968C258.763 391.876 266.897 388.759 263.716 385.56C260.693 382.518 253.158 392.438 256.906 396.209Z" fill="white"/>
<path d="M260.828 391.984C258.397 394.334 257.859 397.106 259.721 397.305C261.958 397.306 264.438 395.92 265.717 395.073C262.597 396.31 259.716 396.536 259.395 394.968C259.192 393.977 259.89 392.983 260.828 391.984Z" fill="#C2D9FF"/>
<path d="M284.112 408.17C288.414 409.579 291.775 408.324 292.918 407.521C294.495 407.521 284.945 414.381 274.933 417.347C264.922 420.313 253.891 421.704 252.964 421.519C252.037 421.333 262.512 417.069 266.961 411.97C271.411 406.872 278.734 406.408 284.112 408.17Z" fill="#FF8D93"/>
<path d="M156.391 365.609C162.325 357.678 170.768 359.871 174.248 361.959L189.865 368.907C192.268 373.422 193.69 383.786 180.148 389.12C163.22 395.787 148.975 375.523 156.391 365.609Z" fill="#FEE6CA"/>
<path d="M272.057 305.636C262.163 305.169 258.484 313.079 257.882 317.092L253.309 333.562C255.264 338.288 262.357 345.978 275.086 338.921C290.998 330.101 284.424 306.22 272.057 305.636Z" fill="#FEE6CA"/>
<path d="M164.125 378.766C161.894 377.882 159.894 374.918 163.902 372.939C167.888 370.971 179.231 375.988 184.978 379.522" stroke="#C39A6A" stroke-width="1.4" stroke-linecap="round"/>
<path d="M277.289 319.973C278.026 317.689 277.011 314.26 272.935 316.094C268.881 317.917 265.537 329.862 264.608 336.544" stroke="#C39A6A" stroke-width="1.4" stroke-linecap="round"/>
<path d="M274.222 341.419C274.441 318.755 252.553 293.93 238.111 292.196C224.847 290.603 172.556 319.754 167.201 329.014C159.466 342.388 172.594 372.497 185.994 385.425C199.394 398.354 227.727 390.643 242.21 383.103C256.694 375.562 274.002 364.084 274.222 341.419Z" fill="#FEE6CA"/>
<path d="M195.239 362.378C194.056 360.066 194.829 351.198 197.232 349.137C199.225 347.428 204.209 355.259 203.07 360.242C201.931 365.225 196.806 365.439 195.239 362.378Z" fill="#95BFFF"/>
<circle cx="218.453" cy="349.046" r="2.81604" fill="#252C38"/>
<circle cx="245.179" cy="336.067" r="2.81604" fill="#252C38"/>
<path d="M252.832 360.833C256.467 356.212 252.476 351.385 245.044 350.641C235.925 349.729 226.406 354.211 221.311 361.826C217.157 368.034 218.343 374.183 224.221 374.318C229.756 374.445 233.22 366.824 239.861 363.691C246.708 360.462 250.25 364.116 252.832 360.833Z" fill="#7F3E20"/>
<path d="M219.09 370.696C219.696 372.834 221.429 374.255 224.221 374.319C227.337 374.39 229.797 372.005 232.538 369.348C234.664 367.286 236.959 365.06 239.861 363.692C241.828 362.764 243.522 362.404 244.999 362.285C240.767 357.399 233.65 355.708 227.517 358.601C222.585 360.927 219.535 365.629 219.09 370.696Z" fill="#EC4E56"/>
<path d="M225.871 356.751L226.582 358.26C227.077 359.309 228.328 359.758 229.377 359.263L240.215 354.152C241.264 353.657 241.714 352.406 241.219 351.357L240.858 350.592C235.398 351 230.058 353.214 225.871 356.751Z" fill="white"/>
<path d="M234.773 312.814C230.365 317.467 225.064 319.911 222.965 320.551C221.768 315.987 219.399 306.762 219.499 306.38C219.598 305.997 222.372 299.569 223.746 296.403C230.046 295.624 242.782 294.056 243.326 294.023C243.87 293.991 250.313 298.655 253.466 300.991C257.059 304.705 263.433 312.307 260.179 313.002C256.113 313.87 252.221 305.914 246.371 304.337C240.522 302.759 240.283 306.999 234.773 312.814Z" fill="#E8C8A3"/>
<path d="M200.947 329.327C213.917 326.241 222.802 319.02 223.489 318.696L202.71 304.297L188.601 309.972C180.17 317.305 163.204 332.049 162.789 332.356C162.375 332.663 165.581 344.701 167.235 350.681C172.411 356.12 182.409 367.878 185.095 365.269C190.146 360.361 183.938 354.065 181.024 344.179C178.183 334.54 187.176 332.605 200.947 329.327Z" fill="#E8C8A3"/>
<path opacity="0.3" d="M186.682 386.061C196.164 394.413 212.374 393.318 226.166 389.386C226.039 386.855 225.425 384.305 224.277 381.87C219.567 371.885 207.655 367.608 197.67 372.317C191.858 375.058 187.98 380.239 186.682 386.061Z" fill="#FA554B"/>
<path opacity="0.3" d="M274.169 339.142C274.21 339.903 274.228 340.662 274.22 341.42C274.108 352.952 269.572 361.588 263.235 368.283C261.735 366.873 260.469 365.162 259.537 363.187C255.565 354.765 259.172 344.718 267.594 340.746C269.724 339.741 271.957 339.222 274.169 339.142Z" fill="#FA554B"/>
<ellipse rx="3.06555" ry="2.11267" transform="matrix(-0.904462 0.426555 0.426555 0.904462 234.326 344.641)" fill="#F3BF9C"/>
<path d="M263.952 318.776C266.881 319.103 265.058 310.048 264.777 307.477C268.001 290.289 252.484 285.858 251.924 285.562C251.365 285.266 256.325 273.835 252.258 273.515C249.004 273.26 241.421 278.813 238.036 281.621C237.52 279.44 234.746 274.053 227.778 269.954C219.067 264.83 207.156 265.971 205.89 266.847C204.878 267.549 211.194 274.138 214.478 277.345C210.369 275.553 198.306 272.774 182.929 275.998C163.708 280.027 143.723 297.565 143.449 299.652C143.175 301.74 158.687 306.454 159.582 306.871C160.478 307.288 153.896 310.532 148.109 316.059C142.323 321.585 137.607 334.72 139.588 337.142C141.57 339.565 149.667 334.488 151.351 335.092C153.034 335.697 152.703 350.121 154.728 355.6C156.753 361.08 161.724 363.911 166.666 363.119C175.211 361.749 180.382 369.659 184.387 367.77C188.107 366.015 184.94 357.228 182.959 354.806C180.977 352.383 170.487 342.153 181.077 331.983C191.668 321.813 205.027 329.081 220.636 322.139C236.246 315.197 233.13 300.581 241.701 299.476C250.272 298.371 260.113 318.349 263.952 318.776Z" fill="#2B4254"/>
<path d="M184.045 356.557C183.675 355.83 183.298 355.223 182.957 354.806C182.808 354.624 182.611 354.398 182.379 354.131C179.518 350.847 171.281 341.39 181.075 331.983C186.945 326.347 193.666 326.067 201.148 325.755C207.166 325.505 213.677 325.234 220.635 322.139C222.699 321.221 224.436 320.169 225.916 319.031C225.873 285.15 192.331 277.592 172.84 283.972C162.252 287.438 152.257 294.567 144.852 301.116C147.766 302.877 154.463 305.129 157.742 306.231C158.734 306.565 159.413 306.793 159.581 306.871C159.982 307.058 158.88 307.814 157.021 309.088C154.733 310.656 151.299 313.011 148.107 316.059C142.321 321.585 137.605 334.72 139.587 337.143C140.805 338.632 144.336 337.286 147.266 336.169C149.101 335.469 150.7 334.86 151.349 335.092C152.202 335.399 152.538 339.252 152.925 343.692C153.302 348.016 153.727 352.897 154.726 355.6C155.579 357.908 156.954 359.746 158.63 361.041C167.392 352.879 176.358 354.536 184.045 356.557Z" fill="#456279"/>
<path d="M382.763 365.583C382.617 361.701 380.739 354.415 386.374 352.283C391.032 350.521 393.863 354.14 398.648 361.833" stroke="#FC9C89" stroke-width="2" stroke-linecap="round"/>
<path d="M407.359 356.073C408.248 356.073 410.758 361.388 411.902 364.045C411.252 365.158 388.727 376.838 387.8 376.93C386.873 377.023 369.722 380.731 368.516 379.897C367.311 379.062 370.557 369.329 371.576 368.217C372.596 367.104 406.246 356.073 407.359 356.073Z" fill="#EC4E56"/>
<path d="M407.083 355.795C406.564 355.869 410.08 362.067 411.903 365.158C419.071 376.961 434.001 399.79 436.374 396.675C439.341 392.782 439.619 376.745 438.043 373.593C436.467 370.441 425.899 365.158 420.801 362.933C415.702 360.708 407.731 355.702 407.083 355.795Z" fill="#FDBBA4"/>
<path d="M411.336 363.43L411.438 363.396C424.602 378.228 439.619 386.756 436.653 396.953C433.979 406.143 386.409 424.207 379.178 422.168C371.948 420.128 375.471 403.442 368.24 379.711C367.709 377.97 406.899 364.909 411.336 363.43Z" fill="#FC9C89"/>
<path d="M383.583 376.379C384.046 375.267 384.833 373.088 381.544 369.288C378.507 365.779 380.617 361.918 386.04 361.084C391.463 360.249 394.429 366.321 397.117 372.3" stroke="#FC9C89" stroke-width="2" stroke-linecap="round"/>
<path d="M90.0048 295.398C87.3121 294.786 84.6329 296.473 84.0208 299.165L73.7383 344.398L113.515 353.44L123.797 308.208C124.409 305.515 122.723 302.836 120.03 302.224L90.0048 295.398Z" fill="#FDBBA4"/>
<path d="M86.2565 351.658C85.1773 352.817 83.2431 352.321 82.8541 350.786L81.6937 346.206L78.3014 349.85C77.2221 351.009 75.2879 350.513 74.8989 348.978L73.7383 344.398L81.6937 346.206L89.649 348.015L97.6038 349.823L105.559 351.632L113.515 353.44L110.122 357.083C109.043 358.242 107.108 357.747 106.719 356.212L105.559 351.632L102.167 355.275C101.087 356.434 99.1532 355.938 98.7642 354.403L97.6038 349.823L94.2117 353.466C93.1324 354.625 91.1981 354.13 90.8092 352.594L89.649 348.015L86.2565 351.658Z" fill="#FDBBA4"/>
<path d="M90.8008 309.078L103.005 311.853" stroke="#FC9C89" stroke-width="3" stroke-linecap="round"/>
<path d="M88.252 320.287L110.851 325.425" stroke="#FEE6CA" stroke-width="3" stroke-linecap="round"/>
<path d="M86.2793 328.965L101.828 332.5" stroke="#FEE6CA" stroke-width="3" stroke-linecap="round"/>
<path d="M360.268 304.81C361.01 303.141 372.69 312.04 375.471 318.9C377.508 323.925 373.802 332.064 369.538 337.255C365.274 342.446 351.183 347.081 346.548 344.3C341.913 341.519 336.353 326.872 338.022 325.575C339.69 324.277 346.364 327.614 352.111 322.237C357.858 316.861 359.527 306.478 360.268 304.81Z" fill="#29D09E"/>
<circle cx="358.544" cy="329.787" r="5.83691" fill="#8BFFDC"/>
<path d="M370.188 319.178C369.669 320.216 373.37 324.678 375.286 326.78C375.687 325.482 376.435 322.423 376.212 320.569C375.99 318.715 373.833 315.841 372.782 314.636C372.134 315.717 370.706 318.14 370.188 319.178Z" fill="#3AB16A"/>
<path d="M267.011 465.366C273.5 471.669 282.956 471.855 284.996 473.895C285.923 476.212 284.996 486.687 283.234 488.17C281.473 489.653 270.905 490.024 263.86 488.17C256.815 486.316 239.757 477.973 236.79 473.895C233.824 469.816 250.14 453.686 253.292 452.203C256.443 450.719 260.522 459.062 267.011 465.366Z" fill="#29D09E"/>
<circle cx="262.656" cy="474.496" r="5.50945" fill="#8BFFDC"/>
<path d="M280.963 487.011C281.816 487.976 282.988 488.093 283.467 488.031C283.839 488.309 280.639 489.514 275.726 489.7C270.812 489.885 265.669 488.726 265.298 488.448C264.927 488.17 271.601 483.257 274.521 482.33C277.441 481.403 279.897 485.806 280.963 487.011Z" fill="#3AB16A"/>
<path d="M147.707 443.581C150.983 440.429 158.609 435.256 162.91 439.78C167.211 444.304 160.685 452.913 156.884 456.652" stroke="#7577D5" stroke-width="2" stroke-linecap="round"/>
<path d="M164.301 462.399C163.264 461.139 152.498 466.324 147.245 469.074C137.418 475.532 118.396 489.227 120.917 492.341C124.069 496.235 148.913 509.862 154.753 507.266C160.593 504.67 165.599 463.975 164.301 462.399Z" fill="#8A8DE7"/>
<path d="M139.828 429.954C141.126 429.398 163.929 459.247 164.486 462.214C164.486 467.776 137.047 493.732 123.698 492.99C110.349 492.249 92.5508 458.877 92.5508 453.871C92.5508 448.865 100.894 448.494 109.237 444.786C117.579 441.078 138.53 430.51 139.828 429.954Z" fill="#6265CE"/>
<path d="M142.424 443.396C143.567 438.606 146.835 429.565 150.766 431.716C155.679 434.404 152.621 448.68 151.693 452.666" stroke="#494BA5" stroke-width="2" stroke-linecap="round"/>
<path d="M384.648 448.72L391.003 447.154C396.713 446.509 405.007 438.495 399.387 436.745C393.768 434.994 382.253 434.257 380.595 434.718C379.268 435.086 377.83 440.337 377.277 442.917L379.12 446.233L384.648 448.72Z" fill="#C24D81"/>
<path d="M346.735 471.854C349.331 471.706 361.535 476.428 367.313 478.807C378.004 482.577 402.818 493.917 385.111 493.917C352.574 493.917 342.099 473.801 341.914 473.245C341.728 472.689 343.49 472.04 346.735 471.854Z" fill="#C24D81"/>
<path d="M386.224 440.336C390.449 442.63 396.976 437.463 398.089 436.536C402.632 434.867 422.562 444.322 423.86 447.011C425.158 449.699 420.337 462.213 418.483 462.399C416.629 462.584 408.657 456.373 408.008 457.208C407.359 458.042 407.174 483.813 406.803 486.13C406.432 488.448 400.129 494.844 386.038 494.658C371.948 494.473 365.088 484.554 355.632 478.343C346.177 472.132 341.17 474.728 341.448 472.596C341.724 470.487 346.532 469.285 350.584 468.273L350.719 468.239C354.798 467.219 364.717 454.334 364.346 452.665C363.975 450.997 354.15 452.109 351.925 449.606C349.7 447.103 353.499 436.536 356.558 436.536C359.618 436.536 378.715 434.496 380.198 434.311C381.681 434.125 379.734 436.813 386.224 440.336Z" fill="#E874A7"/>
<path d="M398.848 439.159C399.339 439.902 399.856 440.707 400.388 441.561L401.237 441.033C400.7 440.17 400.178 439.359 399.682 438.608L398.848 439.159Z" fill="#FFBEC1"/>
<path d="M401.863 444.001C402.332 444.8 402.805 445.629 403.274 446.48L404.15 445.997C403.676 445.137 403.199 444.301 402.726 443.495L401.863 444.001Z" fill="#FFBEC1"/>
<path d="M404.614 448.996C405.045 449.835 405.466 450.688 405.874 451.551L406.778 451.124C406.366 450.251 405.939 449.387 405.503 448.539L404.614 448.996Z" fill="#FFBEC1"/>
<path d="M407.041 454.146C407.415 455.025 407.769 455.906 408.096 456.785L409.033 456.436C408.7 455.541 408.341 454.645 407.961 453.754L407.041 454.146Z" fill="#FFBEC1"/>
<path d="M376.651 437.711C377.37 437.028 378.08 436.394 378.772 435.819L378.132 435.05C377.422 435.641 376.695 436.29 375.963 436.985L376.651 437.711Z" fill="#FFBEC1"/>
<path d="M372.692 441.819C373.335 441.099 373.983 440.397 374.631 439.722L373.91 439.029C373.253 439.713 372.596 440.425 371.946 441.153L372.692 441.819Z" fill="#FFBEC1"/>
<path d="M369.025 446.204C369.609 445.46 370.211 444.717 370.825 443.983L370.058 443.341C369.438 444.084 368.829 444.835 368.239 445.586L369.025 446.204Z" fill="#FFBEC1"/>
<path d="M365.635 450.805C366.155 450.048 366.71 449.268 367.292 448.478L366.488 447.885C365.899 448.683 365.337 449.472 364.811 450.24L365.635 450.805Z" fill="#FFBEC1"/>
<circle cx="128.519" cy="388.302" r="15.0798" fill="#FBBC05"/>
<circle cx="128.52" cy="388.302" r="9.47852" fill="#F48401"/>
<circle cx="314.672" cy="282.027" r="15.0798" fill="#FBBC05"/>
<circle cx="314.672" cy="282.027" r="9.47852" fill="#F48401"/>
<circle cx="249.395" cy="104.52" r="70.0825" fill="#7FE8F1"/>
<path d="M292.165 160.043C280.331 169.172 265.497 174.603 249.395 174.603C233.293 174.603 218.459 169.172 206.625 160.043C215.479 145.723 231.322 136.183 249.395 136.183C267.467 136.183 283.311 145.723 292.165 160.043Z" fill="#BEFAFF"/>
<ellipse cx="249.394" cy="116.3" rx="126.205" ry="35.5119" fill="#C24D81"/>
<path d="M157.619 91.9227C161.806 95.4463 168.458 99.0032 178.634 101.329C199.27 106.046 278.371 100.347 315.342 96.9075L322.711 101.329C327.302 99.5566 335.533 95.7251 340.218 91.6424C317.266 84.95 285.057 80.7876 249.394 80.7876C213.235 80.7876 180.628 85.0664 157.619 91.9227Z" fill="#A93C6C"/>
<path d="M170.867 67.3156C172.748 30.076 203.49 0.847656 240.777 0.847656H258.012C295.299 0.847656 326.041 30.076 327.923 67.3156L329.122 91.0603C329.375 96.0702 325.878 100.492 320.944 101.4L298.167 105.589C265.802 111.543 232.621 111.529 200.26 105.549L177.837 101.406C172.907 100.495 169.414 96.0743 169.667 91.0675L170.867 67.3156Z" fill="#7FE8F1"/>
<path d="M329.006 88.7429L329.123 91.0603C329.376 96.0702 325.878 100.492 320.945 101.4L298.168 105.589C265.803 111.543 232.621 111.529 200.26 105.549L177.837 101.406C172.908 100.495 169.414 96.0743 169.667 91.0675L169.785 88.7428C191.502 83.7692 219.211 80.7876 249.395 80.7876C279.579 80.7876 307.289 83.7692 329.006 88.7429Z" fill="#4BD7E3"/>
<path d="M204.369 55.274C205.099 61.9129 210.364 64.5472 213.431 64.9041C216.663 66.8377 212.67 75.9318 209.621 75.347C206.572 74.7622 195.179 72.8581 191.951 57.1269C188.723 41.3956 198.108 35.4287 203.385 39.6926C207.76 43.2274 203.457 46.9753 204.369 55.274Z" fill="#FBBC05"/>
<path d="M206.944 61.3743C208.917 63.6392 211.577 64.6884 213.433 64.9043C216.665 66.8378 212.671 75.932 209.622 75.3472C209.57 75.3371 209.515 75.3267 209.458 75.3158C207.199 74.886 201.233 73.7507 196.709 68.0082C199.606 64.7475 203.618 62.6114 206.944 61.3743Z" fill="#FFA53A"/>
<path d="M194.976 65.4351C194.613 64.8017 194.267 64.1268 193.942 63.4078C196.265 60.8198 199.76 58.3523 204.706 57.1005C204.895 57.8199 205.143 58.4818 205.437 59.0893C200.387 60.3182 197.036 62.902 194.976 65.4351Z" fill="#F48401"/>
<path d="M191.298 50.5025C194.486 48.7129 199.054 47.4245 204.687 48.2986C204.571 48.9511 204.462 49.6437 204.38 50.3827C198.592 49.4815 194.136 51.0885 191.36 52.9275C191.3 52.0828 191.28 51.2744 191.298 50.5025Z" fill="#F48401"/>
<path d="M295.927 58.407C294.745 64.9805 289.312 67.2488 286.227 67.3951C282.871 69.1032 286.233 78.4491 289.315 78.0741C292.397 77.6991 303.893 76.5782 308.189 61.1045C312.485 45.6307 303.529 39.0361 297.973 42.9293C293.367 46.1568 297.404 50.1901 295.927 58.407Z" fill="#FBBC05"/>
<path d="M284.832 70.3016C284.757 73.6283 287.108 78.3425 289.314 78.074C289.367 78.0676 289.422 78.0609 289.48 78.054C291.7 77.7871 297.462 77.0944 302.29 72.0733C299.365 68.4656 295.304 65.8643 292.673 64.5757C290.936 66.1917 288.854 67.0149 287.173 67.2924C286.458 68.2096 285.656 69.2398 284.832 70.3016Z" fill="#FFA53A"/>
<path d="M304.603 69.1868C305.009 68.5797 305.4 67.9301 305.774 67.2349C303.633 64.4942 300.314 61.7935 295.466 60.2066C295.228 60.9113 294.935 61.5547 294.601 62.1408C299.555 63.712 302.721 66.5188 304.603 69.1868Z" fill="#F48401"/>
<path d="M309.294 54.5406C306.235 52.5372 301.766 50.9396 296.086 51.4265C296.158 52.0855 296.219 52.7839 296.25 53.5268C302.086 53.0233 306.422 54.9312 309.066 56.9556C309.184 56.117 309.259 55.3119 309.294 54.5406Z" fill="#F48401"/>
<path d="M298.486 105.531L298.169 105.59C266.099 111.489 233.228 111.529 201.149 105.712C200.928 105.401 200.715 105.084 200.513 104.761C196.232 96.3522 192.419 75.4218 211.413 58.9738C235.155 38.4138 250.98 33.1415 255.483 37.4171C258.371 40.1593 256.191 44.8754 254.701 48.0976C253.868 49.8995 253.251 51.2342 253.857 51.4952C254.488 51.7668 257.135 51.0065 260.457 50.0525C266.036 48.4502 273.518 46.3013 276.545 47.5768C280.592 49.2826 278.326 52.2559 276.906 54.118C276.295 54.9206 275.84 55.5168 276.116 55.7161C276.21 55.7837 276.528 55.9271 277.026 56.1516C281.411 58.1277 299.742 66.3885 301.693 84.5568C302.715 94.0752 301.315 100.674 298.486 105.531Z" fill="#8A8DE7"/>
<ellipse cx="218.869" cy="85.7357" rx="6.40007" ry="3.77618" fill="#FF9FA4"/>
<ellipse cx="281.695" cy="85.7357" rx="6.40007" ry="3.77618" fill="#FF9FA4"/>
<path d="M298.487 105.531C300.227 102.542 301.427 98.8935 301.855 94.3115C297.124 98.762 289.718 104.115 279.943 108.302C286.039 107.607 292.118 106.702 298.167 105.589L298.487 105.531Z" fill="#6265CE"/>
<path d="M213.985 107.722C209.695 107.156 205.416 106.486 201.15 105.712C200.929 105.401 200.716 105.084 200.513 104.761C199.228 102.236 197.985 98.5813 197.389 94.2581C200.83 98.5633 206.345 103.636 213.985 107.722Z" fill="#6265CE"/>
<path d="M276.446 54.7332C274.708 56.6324 271.445 59.7045 268.69 60.6684C264.967 61.9712 273.302 63.8101 282.809 59.0701C280.286 57.6211 278.176 56.67 277.026 56.1516C276.527 55.927 276.209 55.7837 276.116 55.7161C275.916 55.572 276.098 55.2203 276.446 54.7332Z" fill="#6265CE"/>
<circle cx="250.448" cy="71.2136" r="3.68431" fill="#252C38"/>
<circle cx="233.346" cy="79.457" r="3.68431" fill="#252C38"/>
<circle cx="267.55" cy="79.4563" r="3.68431" fill="#252C38"/>
<path d="M260.593 92.4981C263.966 91.3668 266.772 90.426 268.524 91.3301C271.318 92.7714 269.424 101.284 258.349 104.199C256.848 104.804 254.426 105.178 250.791 105.178C250.675 105.178 250.56 105.177 250.445 105.176C250.331 105.177 250.216 105.178 250.1 105.178C246.465 105.178 244.043 104.804 242.541 104.199C231.467 101.284 229.573 92.7714 232.366 91.3301C234.119 90.426 236.924 91.3668 240.298 92.4981C243.337 93.5173 246.838 94.6911 250.445 94.81C254.052 94.6911 257.553 93.5173 260.593 92.4981Z" fill="#522713"/>
<path d="M239.008 102.96C236.282 101.728 234.354 100.118 233.098 98.4839C233.767 96.5882 234.835 94.1216 235.693 93.9248C236.753 93.6819 238.467 99.794 239.192 102.88C239.13 102.907 239.069 102.934 239.008 102.96Z" fill="white"/>
<path d="M267.795 98.4824C266.539 100.117 264.61 101.728 261.884 102.959C261.824 102.934 261.763 102.908 261.701 102.881C262.426 99.7943 264.14 93.6822 265.2 93.925C266.058 94.1218 267.125 96.5869 267.795 98.4824Z" fill="white"/>
<path d="M261.87 102.966C260.818 103.44 259.647 103.858 258.351 104.199C256.849 104.805 254.427 105.178 250.792 105.178C250.676 105.178 250.561 105.178 250.447 105.177C250.332 105.178 250.217 105.178 250.102 105.178C246.466 105.178 244.044 104.805 242.543 104.199C241.247 103.858 240.077 103.441 239.025 102.966C241.636 99.5084 245.781 97.2734 250.448 97.2734C255.114 97.2734 259.259 99.5082 261.87 102.966Z" fill="#EC4E56"/>
<circle cx="279.138" cy="18.5954" r="7.9035" fill="#BEFAFF"/>
<ellipse cx="303.872" cy="44.2544" rx="9.21237" ry="20.4369" transform="rotate(-40.4318 303.872 44.2544)" fill="#BEFAFF"/>
<g filter="url(#filter0_d_936_1012)">
<circle cx="252.08" cy="132.276" r="11.7852" fill="#FBBC05"/>
<circle cx="252.08" cy="132.276" r="11.7852" stroke="white" stroke-width="4"/>
</g>
<g filter="url(#filter1_d_936_1012)">
<circle cx="148.809" cy="115.963" r="11.7852" fill="#FBBC05"/>
<circle cx="148.809" cy="115.963" r="11.7852" stroke="white" stroke-width="4"/>
</g>
<g filter="url(#filter2_d_936_1012)">
<circle cx="351.654" cy="115.963" r="11.7852" fill="#FBBC05"/>
<circle cx="351.654" cy="115.963" r="11.7852" stroke="white" stroke-width="4"/>
</g>
<path d="M101.7 131.869L106.829 132.374C113.632 133.044 118.604 139.102 117.934 145.906C117.264 152.709 111.205 157.681 104.402 157.011L99.274 156.506L97.4984 174.534C96.6673 182.972 89.1531 189.139 80.7148 188.308C72.2765 187.476 66.1097 179.962 66.9408 171.524L68.7163 153.496L19.8484 148.683C11.8157 147.892 5.76003 141.027 5.97685 132.959C6.06515 129.673 7.20369 126.501 9.2256 123.909L73.509 41.5018C77.7255 36.0965 84.4214 33.2279 91.2436 33.8999C102.236 34.9825 110.278 44.7722 109.196 55.7647L101.7 131.869ZM37.0958 125.506L71.1427 128.86L76.4954 74.5113L74.1428 77.8028L37.0958 125.506Z" fill="#6265CE"/>
<path d="M465.048 131.176L470.172 130.629C476.97 129.904 483.068 134.826 483.794 141.623C484.52 148.421 479.598 154.519 472.8 155.245L467.677 155.792L469.6 173.805C470.5 182.236 464.395 189.801 455.964 190.701C447.532 191.601 439.968 185.496 439.068 177.065L437.145 159.052L388.318 164.265C380.292 165.122 372.968 159.63 371.541 151.686C370.96 148.45 371.431 145.114 372.884 142.165L419.09 48.4187C422.121 42.2697 428.094 38.1009 434.911 37.3731C445.894 36.2005 455.757 44.1527 456.93 55.1359L465.048 131.176ZM400.498 138.068L434.516 134.436L428.719 80.1336L427.084 83.8343L400.498 138.068Z" fill="#6265CE"/>
<defs>
<filter id="filter0_d_936_1012" x="204.295" y="104.49" width="95.5703" height="95.5703" filterUnits="userSpaceOnUse" color-interpolation-filters="sRGB">
<feFlood flood-opacity="0" result="BackgroundImageFix"/>
<feColorMatrix in="SourceAlpha" type="matrix" values="0 0 0 0 0 0 0 0 0 0 0 0 0 0 0 0 0 0 127 0" result="hardAlpha"/>
<feOffset dy="20"/>
<feGaussianBlur stdDeviation="17"/>
<feComposite in2="hardAlpha" operator="out"/>
<feColorMatrix type="matrix" values="0 0 0 0 0.0962667 0 0 0 0 0.095 0 0 0 0 0.158333 0 0 0 0.09 0"/>
<feBlend mode="normal" in2="BackgroundImageFix" result="effect1_dropShadow_936_1012"/>
<feBlend mode="normal" in="SourceGraphic" in2="effect1_dropShadow_936_1012" result="shape"/>
</filter>
<filter id="filter1_d_936_1012" x="101.023" y="88.178" width="95.5703" height="95.5703" filterUnits="userSpaceOnUse" color-interpolation-filters="sRGB">
<feFlood flood-opacity="0" result="BackgroundImageFix"/>
<feColorMatrix in="SourceAlpha" type="matrix" values="0 0 0 0 0 0 0 0 0 0 0 0 0 0 0 0 0 0 127 0" result="hardAlpha"/>
<feOffset dy="20"/>
<feGaussianBlur stdDeviation="17"/>
<feComposite in2="hardAlpha" operator="out"/>
<feColorMatrix type="matrix" values="0 0 0 0 0.0962667 0 0 0 0 0.095 0 0 0 0 0.158333 0 0 0 0.09 0"/>
<feBlend mode="normal" in2="BackgroundImageFix" result="effect1_dropShadow_936_1012"/>
<feBlend mode="normal" in="SourceGraphic" in2="effect1_dropShadow_936_1012" result="shape"/>
</filter>
<filter id="filter2_d_936_1012" x="303.869" y="88.178" width="95.5703" height="95.5703" filterUnits="userSpaceOnUse" color-interpolation-filters="sRGB">
<feFlood flood-opacity="0" result="BackgroundImageFix"/>
<feColorMatrix in="SourceAlpha" type="matrix" values="0 0 0 0 0 0 0 0 0 0 0 0 0 0 0 0 0 0 127 0" result="hardAlpha"/>
<feOffset dy="20"/>
<feGaussianBlur stdDeviation="17"/>
<feComposite in2="hardAlpha" operator="out"/>
<feColorMatrix type="matrix" values="0 0 0 0 0.0962667 0 0 0 0 0.095 0 0 0 0 0.158333 0 0 0 0.09 0"/>
<feBlend mode="normal" in2="BackgroundImageFix" result="effect1_dropShadow_936_1012"/>
<feBlend mode="normal" in="SourceGraphic" in2="effect1_dropShadow_936_1012" result="shape"/>
</filter>
<linearGradient id="paint0_linear_936_1012" x1="249.914" y1="146.38" x2="249.914" y2="266.506" gradientUnits="userSpaceOnUse">
<stop stop-color="#5CABD7"/>
<stop offset="1" stop-color="#7FE8F1" stop-opacity="0"/>
</linearGradient>
</defs>
</svg>
