<svg width="1060" height="508" viewBox="0 0 1060 508" fill="none" xmlns="http://www.w3.org/2000/svg">
<path d="M250.278 266.376C253.659 267.796 258.158 267.187 259.985 266.705C261.552 266.389 261.564 255.579 258.763 251.448C255.962 247.318 249.618 247.359 248.679 248.761C248.201 249.476 249.311 251.039 250.13 251.988C248.882 252.055 245.884 252.938 243.882 255.93C241.38 259.67 246.052 264.601 250.278 266.376Z" fill="#FEE6CA"/>
<path d="M258.143 249.569C259.825 248.331 282.805 247.27 294.274 247.424C298.428 249.392 305.46 271.701 299.322 273.096C293.183 274.49 274.244 270.698 268.283 269.242C264.482 269.006 260.526 270.75 258.677 269.286C256.827 267.823 256.04 251.115 258.143 249.569Z" fill="#FBBC05"/>
<path d="M300.844 272.001C300.47 272.567 299.969 272.949 299.32 273.096C293.181 274.491 274.242 270.698 268.281 269.242C266.75 269.147 265.193 269.373 263.759 269.582C261.634 269.891 259.779 270.16 258.675 269.287C258.226 268.931 257.84 267.679 257.542 265.963C260.253 266.199 263.685 266.183 265.663 265.067C267.432 264.069 271.101 264.539 275.323 265.078C278.745 265.516 282.11 266.681 285.54 266.467C291.668 266.085 292.902 258.088 293.521 256.85L300.844 272.001Z" fill="#FFA53A"/>
<path d="M264.833 251.55C263.994 254.282 262.952 261.007 265.494 266.046" stroke="#E88D24" stroke-width="2" stroke-linecap="round"/>
<path d="M389.375 217.474C387.657 220.714 383.789 223.091 382.07 223.874C380.657 224.622 373.803 216.262 373.356 211.292C372.909 206.321 377.846 202.336 379.46 202.827C380.283 203.078 380.413 204.99 380.38 206.243C381.389 205.505 384.267 204.291 387.711 205.339C392.016 206.649 391.522 213.424 389.375 217.474Z" fill="#FEE6CA"/>
<path d="M372.644 209.444C370.559 209.551 352.1 223.279 343.32 230.66C341.351 234.813 350.032 256.534 355.667 253.727C361.301 250.92 373.559 235.993 377.252 231.092C380.044 228.503 384.21 227.348 384.715 225.044C385.22 222.74 375.251 209.31 372.644 209.444Z" fill="#FBBC05"/>
<path d="M353.795 253.845C354.443 254.046 355.073 254.024 355.668 253.727C361.303 250.92 373.561 235.993 377.253 231.092C378.378 230.049 379.726 229.239 380.968 228.492C382.808 227.386 384.415 226.42 384.717 225.044C384.839 224.485 384.345 223.271 383.489 221.754C381.54 223.654 378.874 225.814 376.637 226.203C374.635 226.55 372.092 229.237 369.166 232.327C366.794 234.833 364.928 237.865 362.137 239.871C357.152 243.456 351.134 238.047 349.87 237.481L353.795 253.845Z" fill="#FFA53A"/>
<path d="M368.722 215.214C371.101 216.798 376.165 221.343 377.388 226.853" stroke="#E88D24" stroke-width="2" stroke-linecap="round"/>
<path d="M315.66 233.813C308.1 237.33 292.572 245.607 292.026 251.165C291.309 258.455 301.046 297.452 302.097 298.537C302.922 299.389 325.146 291.461 335.381 287.346C345.908 284.051 368.129 276.117 368.228 274.934C368.355 273.429 351.201 237.08 346.031 231.891C342.089 227.935 324.829 231.36 316.751 233.423L316.717 233.328C316.546 233.405 316.37 233.485 316.188 233.569C315.994 233.619 315.806 233.669 315.626 233.718L315.66 233.813Z" fill="#FBBC05"/>
<path d="M300.375 293.164C303.842 290.077 308.094 286.196 308.184 285.746C308.298 285.175 312.017 277.521 313.862 273.766L308.022 257.402C307.186 261.505 304.918 270.348 302.536 272.897C300.246 275.348 297.306 275.544 295.977 275.321C297.497 282.075 299.155 288.721 300.375 293.164Z" fill="#FFA53A"/>
<path d="M358.143 252.842C356.939 253.734 354.96 254.621 352.455 254.285C348.998 253.82 341.644 248.41 338.398 245.764L344.239 262.128C348.045 263.867 355.769 267.436 356.219 267.806C356.541 268.071 361.305 268.352 365.65 268.547C363.756 264.34 361.019 258.578 358.143 252.842Z" fill="#FFA53A"/>
<path d="M305.244 328.766C307.159 327.097 314.11 323.156 317.347 321.394C318.304 320.868 327.671 321.83 332.235 322.377C333.153 326.021 334.735 333.555 333.716 334.545C332.442 335.784 304.126 339.149 302.317 337.799C300.507 336.448 302.851 330.853 305.244 328.766Z" fill="#445066"/>
<path d="M311.149 324.434C308.596 322.746 304.944 299.832 303.438 288.586L336.448 293.161C336.111 302.892 335.255 322.595 334.535 323.56C333.635 324.767 314.341 326.544 311.149 324.434Z" fill="#E874A7"/>
<path d="M336.072 302.669C335.656 312.173 335.058 322.856 334.533 323.56C334.117 324.118 329.771 324.798 324.902 325.159C327.683 319.29 329.728 306.611 330.477 300.196L336.072 302.669Z" fill="#D5588F"/>
<path d="M385.632 301.18C383.092 301.149 375.244 302.653 371.637 303.409C370.568 303.629 364.058 310.432 360.936 313.807C362.598 317.176 366.276 323.939 367.694 324.033C369.467 324.151 393.213 308.362 393.715 306.161C394.218 303.96 388.807 301.218 385.632 301.18Z" fill="#445066"/>
<path d="M378.328 301.705C379.179 298.765 367.11 278.948 360.969 269.407L338.794 294.285C345.358 301.477 358.779 315.928 359.952 316.196C361.42 316.531 377.265 305.381 378.328 301.705Z" fill="#E874A7"/>
<path d="M345.242 301.284C351.718 308.252 359.097 316.001 359.954 316.196C360.632 316.351 364.382 314.052 368.324 311.172C362.402 308.505 352.629 300.174 347.9 295.775L345.242 301.284Z" fill="#D5588F"/>
<path d="M340.71 302.278C339.543 302.698 338.31 303.142 337.034 303.602C324.532 308.106 307.797 314.136 306.702 313.351C305.097 312.198 297.804 286.929 298.25 285.576C298.441 284.996 299.223 283.889 300.293 282.373C301.723 280.349 303.667 277.595 305.408 274.394C307.583 270.395 306.482 263.098 305.855 258.946C305.604 257.285 305.43 256.127 305.572 255.887C305.922 255.293 315.566 252.038 322.029 249.934C328.363 247.471 337.889 243.885 338.536 244.122C338.798 244.218 339.396 245.225 340.254 246.67C342.397 250.28 346.165 256.625 350.38 258.344C353.755 259.719 357.003 260.619 359.391 261.281C361.18 261.777 362.486 262.139 363 262.466C364.203 263.232 374.557 287.408 374.043 289.317C373.694 290.618 356.922 296.546 344.393 300.975C343.114 301.427 341.879 301.864 340.71 302.278Z" fill="#EC4E56"/>
<path d="M330.03 274.262L330.03 274.262C333.592 273.552 336.592 274.11 336.106 275.765C335.051 279.207 327.317 282.461 329.897 286.233C333.004 289.642 340.885 279.862 339.21 275.169C337.886 271.458 332.471 273.391 330.03 274.262Z" fill="white"/>
<path d="M330.042 274.258C330.038 274.259 330.035 274.261 330.031 274.262C333.593 273.552 336.593 274.11 336.107 275.765C335.923 276.365 335.537 276.959 335.037 277.551C335.095 277.484 335.163 277.408 335.238 277.323C336.179 276.262 338.231 273.947 336.611 273.058C334.458 272.685 331.628 273.692 330.042 274.258Z" fill="#C2D9FF"/>
<path d="M323.289 274.289C324.702 278.249 330.717 277.919 333.365 277.531C329.375 277.283 326.153 276.067 326.602 274.213C327.488 270.558 337.838 271.322 336.032 266.26C334.314 261.448 321.16 268.323 323.289 274.289Z" fill="white"/>
<path d="M329.661 271.723C325.848 273.023 323.863 275.739 325.77 276.898C328.18 278.033 331.557 277.796 333.366 277.531C329.375 277.283 326.154 276.066 326.603 274.213C326.886 273.041 328.143 272.324 329.661 271.723Z" fill="#C2D9FF"/>
<path d="M337.034 303.601C338.31 303.141 339.543 302.697 340.71 302.278C341.879 301.864 343.114 301.427 344.393 300.975C356.922 296.546 373.693 290.617 374.043 289.317C374.415 287.933 369.074 274.841 365.651 267.456C362.181 274.506 353.522 285.83 337.695 292.202C319.516 299.522 305.337 296.66 300.175 294.185C302.343 302.077 305.678 312.616 306.702 313.35C307.797 314.136 324.532 308.106 337.034 303.601Z" fill="#E13328"/>
<rect x="306.16" y="298.812" width="15.75" height="3.75" transform="rotate(-19.6413 306.16 298.812)" fill="#FF9FA4"/>
<rect x="350.426" y="283.014" width="15.75" height="3.75" transform="rotate(-19.6413 350.426 283.014)" fill="#FF9FA4"/>
<path d="M303.092 242.637C303.092 242.637 316.405 254.277 316.988 256.656C317.572 259.036 310.718 262.146 308.936 261.986C307.153 261.826 292.357 248.26 293.207 247.293C293.886 246.519 299.891 243.956 303.092 242.637Z" fill="#EC4E56"/>
<path d="M332.064 232.297C332.064 232.297 329.13 249.736 330.185 251.947C331.24 254.159 338.513 252.227 339.792 250.974C341.07 249.721 343.933 229.853 342.664 229.642C341.648 229.474 335.377 231.292 332.064 232.297Z" fill="#EC4E56"/>
<path d="M321.733 248.924C315.954 250.881 310.553 247.473 308.574 245.524L329.647 238.003C329.417 240.829 327.511 246.968 321.733 248.924Z" fill="#FEE6CA"/>
<path d="M320.779 247.407C315.599 249.256 311.003 248.153 309.352 247.371L309.756 245.899L326.562 239.437L330.249 240.842C329.251 242.26 325.959 245.558 320.779 247.407Z" fill="#DBBB95"/>
<path d="M222.142 208.45C230.817 198.952 241.452 202.858 245.685 205.998L264.987 216.961C267.521 223.101 268.043 236.677 249.863 241.852C227.139 248.32 211.298 220.322 222.142 208.45Z" fill="#FEE6CA"/>
<path d="M232.387 223.159C230.021 221.13 228.818 216.645 234.576 215.909C240.302 215.178 252.111 226.135 257.673 232.905" stroke="#C39A6A" stroke-width="2" stroke-linecap="round"/>
<path d="M373.929 154.277C361.201 152.418 355.442 162.175 354.154 167.285L346.155 187.992C348.082 194.349 356.272 205.187 373.621 197.683C395.306 188.302 389.84 156.601 373.929 154.277Z" fill="#FEE6CA"/>
<path d="M379.078 170.805C379.625 167.737 377.716 163.504 372.794 166.58C367.899 169.64 365.696 185.597 365.677 194.359" stroke="#C39A6A" stroke-width="2" stroke-linecap="round"/>
<path d="M255.497 236.424C235.603 216.838 233.124 176.147 244.218 162.08C254.408 149.16 325.38 129.141 338.102 132.566C356.478 137.514 371.195 175.199 370.741 198.129C370.286 221.06 338.86 238.96 319.666 244.971C300.472 250.981 275.391 256.01 255.497 236.424Z" fill="#FEE6CA"/>
<circle cx="284.467" cy="201.522" r="4.63828" transform="rotate(-19.6413 284.467 201.522)" fill="#252C38"/>
<circle cx="324.967" cy="187.068" r="4.63828" transform="rotate(-19.6413 324.967 187.068)" fill="#252C38"/>
<ellipse cx="307.453" cy="201.965" rx="3.98124" ry="2.74373" transform="rotate(-19.6413 307.453 201.965)" fill="#F3BF9C"/>
<path d="M323.093 202.178C328.504 202.835 329.041 208.615 324.646 213.966C319.255 220.532 310.071 223.815 301.743 222.148C294.953 220.789 291.709 215.974 295.481 212.04C299.033 208.335 303.764 211.95 310.175 209.662C316.784 207.303 317.975 201.556 323.093 202.178Z" fill="#7F3E20"/>
<path d="M317.366 204.642L318.181 206.925C318.738 208.485 317.924 210.202 316.364 210.759L306.122 214.414C304.561 214.971 302.845 214.157 302.288 212.597L301.469 210.302C301.785 210.32 302.107 210.342 302.436 210.365C304.701 210.522 307.266 210.7 310.177 209.661C313.203 208.582 315.093 206.791 316.744 205.227C316.955 205.028 317.162 204.832 317.366 204.642Z" fill="white"/>
<path d="M322.838 215.912C317.985 220.552 311.06 223.027 304.368 222.51C305.607 219.06 308.325 216.172 312.047 214.843C315.766 213.516 319.696 214.03 322.838 215.912Z" fill="#EC4E56"/>
<path opacity="0.3" d="M300.259 249.601C286.165 251.594 271.057 250.084 257.932 238.677C260.157 232.908 264.787 228.105 271.068 225.863C282.511 221.779 295.099 227.745 299.183 239.188C300.416 242.643 300.733 246.203 300.259 249.601Z" fill="#FA554B"/>
<path opacity="0.3" d="M370.72 198.776C370.084 212.816 357.895 224.93 344.192 233.524C341.817 231.239 339.921 228.385 338.739 225.071C334.655 213.627 340.62 201.04 352.064 196.956C358.491 194.662 365.28 195.539 370.72 198.776Z" fill="#FA554B"/>
<path d="M247.727 172.876C237.778 179.213 245.346 199.673 245.32 200.345L240.264 195.846L230.978 169.828L239.338 159.412L260.957 155.28C274.85 158.506 299.48 165.713 286.86 168.73C271.085 172.502 257.675 166.538 247.727 172.876Z" fill="#E8C8A3"/>
<path d="M333.033 142.43C344.746 141.037 351.843 161.664 352.288 162.169L353.353 155.484L344.068 129.466L331.002 126.697L311.652 137.187C302.941 148.48 288.439 169.653 300.118 163.999C314.716 156.93 321.32 143.823 333.033 142.43Z" fill="#E8C8A3"/>
<path d="M331.231 139.092C318.786 141.41 322.231 154.78 295.28 166.655C270.061 174.461 259.519 162.031 249.345 165.132C239.17 168.232 239.125 181.122 241.478 187.715C243.539 193.488 251.227 207.595 247.948 209.562C244.702 211.508 237.776 207.878 235.734 206.808L235.672 206.776C233.713 205.749 225.222 198.693 221.086 191.94C217.778 186.538 217.301 174.268 217.476 168.808C214.25 169.561 207.678 171.03 207.201 170.882C206.604 170.697 205.301 168.906 211.315 159.725C216.126 152.381 223.961 148.797 227.277 147.923C227.213 144.893 227.673 136.315 230.022 126.239C232.96 113.643 247.998 97.3933 250.234 98.4532C252.023 99.3012 252.832 112.922 253.013 119.626C256.436 112.609 268.296 96.2542 288.343 86.9757C313.403 75.3776 327.342 83.9404 328.267 84.6721C329.007 85.2575 321.599 97.8467 317.803 104.068C321.932 102.993 331.9 99.8835 338.909 99.9862C349.982 100.148 356.759 104.632 357.733 109.593C358.513 113.562 348.998 116.603 344.143 117.628C347.725 119.978 355.913 126.063 360.015 131.606C365.143 138.536 365.728 155.05 365.223 157.354C364.718 159.658 359.772 168.856 354.693 168.014C349.615 167.172 349.633 160.529 349.399 153.18C349.165 145.831 343.676 136.774 331.231 139.092Z" fill="#2B4254"/>
<path d="M320.168 147.396C323.393 143.219 325.798 140.103 331.228 139.092C333.695 138.633 335.888 138.62 337.822 138.953C337.863 138.952 337.905 138.951 337.946 138.951C343.745 138.899 348.395 141.434 352.775 143.82C356.83 146.03 360.653 148.113 364.938 147.898C364.299 142.223 362.852 135.445 360.012 131.606C355.91 126.063 347.722 119.978 344.14 117.628C348.995 116.603 358.509 113.562 357.73 109.593C356.756 104.632 349.979 100.148 338.906 99.9862C332.949 99.8989 324.854 102.132 320.023 103.464C319.17 103.699 318.419 103.907 317.799 104.068C321.596 97.8467 329.004 85.2575 328.264 84.6721C328.194 84.6167 328.049 84.5165 327.831 84.3835C313.033 83.9295 292.079 87.1773 278.02 101.94C255.042 126.068 264.472 145.796 268.558 152.036C268.637 152.157 268.719 152.282 268.803 152.411C271.499 156.54 276.737 164.56 285.855 168.795C288.753 168.39 291.882 167.706 295.277 166.655C310.468 159.962 316.002 152.793 320.168 147.396Z" fill="#456279"/>
<path d="M692.885 364.956C692.436 363.615 709.354 330.985 717.869 314.838L837.798 379.095C830.401 395.241 815.193 427.577 813.539 427.758C811.471 427.984 800.703 422.407 799.808 421.961C798.913 421.515 802.117 413.125 801.53 412.763C800.943 412.4 795.473 419.45 794.606 419.367C793.739 419.285 758.558 403.003 751.286 399.098C744.014 395.194 708.773 375.95 708.381 375.335C707.989 374.721 710.941 365.158 710.436 364.208C709.932 363.259 703.848 371.26 703.066 371.428C702.284 371.597 693.446 366.632 692.885 364.956Z" fill="#2B4254"/>
<path d="M692.925 438.863C695.182 438.145 700.778 438.425 703.294 438.655C707.9 441.65 717.259 447.935 717.841 449.12C718.57 450.6 713.271 460.11 711.817 459.804C710.363 459.498 684.83 448.236 684.296 446.085C683.763 443.933 690.103 439.761 692.925 438.863Z" fill="#445066"/>
<path d="M753.621 469.121C752.836 466.886 749.244 462.586 747.546 460.715C742.382 458.839 731.73 455.149 730.433 455.397C728.812 455.706 724.408 465.662 725.527 466.639C726.646 467.616 751.008 481.227 753.047 480.358C755.087 479.489 754.603 471.915 753.621 469.121Z" fill="#445066"/>
<path d="M700.818 421.148C702.335 418.105 709.297 405.821 712.588 400.059L772.098 426.095C772.157 428.498 771.494 434.928 768.371 441.416C764.468 449.526 753.307 466.031 752.077 466.256C750.848 466.481 737.201 460.516 723.608 453.6C710.016 446.684 695.472 438.316 695.302 436.695C695.132 435.074 698.922 424.951 700.818 421.148Z" fill="#8A8DE7"/>
<path d="M702.094 418.729C701.53 419.77 701.086 420.606 700.816 421.148C699.4 423.988 696.929 430.35 695.839 434.067C700.524 436.548 719.425 446.316 736.979 450.769C748.224 453.621 756.025 454.594 760.534 454.79C760.978 454.106 761.422 453.413 761.863 452.717L735.896 433.049L709.383 419.832L702.094 418.729Z" fill="#7B7DD7"/>
<path d="M762.841 373.504C762.85 373.485 762.86 373.466 762.869 373.448C762.759 373.404 762.647 373.36 762.534 373.315C762.429 373.251 762.326 373.188 762.226 373.127C762.216 373.146 762.207 373.165 762.197 373.183C755.207 370.446 741.3 365.362 736.812 367.721C732.925 369.763 718.098 390.597 711.569 400.704C718.641 406.142 734.844 417.889 738.707 420.292C738.7 420.309 738.695 420.324 738.691 420.336C738.773 420.377 738.883 420.426 739.021 420.483C739.148 420.558 739.252 420.616 739.334 420.657C739.341 420.647 739.35 420.634 739.359 420.619C743.682 422.302 763.624 428.569 772.231 430.945C776.373 419.648 784.086 395.268 783.378 390.935C782.56 385.93 769.288 377.465 762.841 373.504Z" fill="#7FE8F1"/>
<path d="M712.075 399.926L725.629 401.253L739.142 388.436L737.346 382.512C734.573 384.901 728.276 389.667 725.28 389.626C723.488 389.602 721.819 388.616 720.563 387.537C717.351 392.045 714.308 396.504 712.075 399.926Z" fill="#57CBD5"/>
<path d="M777.313 415.894C775.761 415.521 774.09 414.786 773.045 413.44C771.209 411.072 771.226 403.175 771.464 399.522L765.652 401.653L763.55 420.159L772.58 429.98C773.958 426.161 775.665 421.11 777.313 415.894Z" fill="#57CBD5"/>
<path d="M755.477 387.886C748.143 384.229 747.416 378.094 747.748 375.652L770.737 386.414C768.559 388.541 762.646 391.459 755.477 387.886Z" fill="#FEE6CA"/>
<path d="M757.12 384.876C752.197 382.422 749.807 378.344 749.228 376.612L750.568 375.883L766.873 383.523L768.414 387.154C766.7 387.417 762.042 387.33 757.12 384.876Z" fill="#DBBB95"/>
<path d="M730.097 439.5C728.986 438.949 727.811 438.368 726.595 437.767C714.685 431.874 698.741 423.986 698.549 422.652C698.267 420.696 711.433 397.929 712.718 397.312C713.268 397.048 714.608 396.845 716.443 396.566C718.893 396.194 722.225 395.688 725.74 394.725C730.13 393.522 734.629 387.672 737.188 384.344C738.212 383.012 738.926 382.084 739.197 382.02C739.868 381.861 748.898 386.559 754.893 389.76C761.058 392.621 770.245 397.004 770.522 397.635C770.634 397.891 770.322 399.019 769.875 400.639C768.758 404.686 766.793 411.8 768.475 416.03C769.821 419.416 771.423 422.382 772.601 424.562C773.483 426.195 774.127 427.387 774.247 427.986C774.528 429.383 764.271 453.601 762.539 454.553C761.359 455.202 745.463 447.218 733.589 441.253C732.376 440.644 731.205 440.056 730.097 439.5Z" fill="#2A7AFF"/>
<path d="M742.344 416.177L742.344 416.177C745.324 418.253 747.001 420.802 745.471 421.599C742.257 423.223 734.553 419.902 733.621 424.375C733.316 428.977 745.828 427.884 748.051 423.424C749.809 419.898 744.663 417.333 742.344 416.177Z" fill="white"/>
<path d="M742.358 416.182C742.354 416.181 742.351 416.179 742.348 416.177C745.328 418.254 747.004 420.803 745.474 421.6C744.914 421.883 744.218 422.015 743.445 422.066C743.534 422.061 743.636 422.057 743.748 422.052C745.165 421.996 748.257 421.872 747.775 420.087C746.552 418.276 743.865 416.934 742.358 416.182Z" fill="#C2D9FF"/>
<path d="M737.655 411.334C735.779 415.097 740.183 419.205 742.298 420.846C739.712 417.797 738.357 414.631 740.005 413.671C743.254 411.777 749.875 419.769 752.273 414.959C754.553 410.386 740.481 405.665 737.655 411.334Z" fill="white"/>
<path d="M743.921 414.15C740.341 412.303 737.007 412.753 737.493 414.931C738.344 417.456 740.856 419.726 742.3 420.846C739.713 417.797 738.358 414.632 740.006 413.671C741.047 413.064 742.436 413.473 743.921 414.15Z" fill="#C2D9FF"/>
<path d="M726.594 437.766C727.81 438.368 728.984 438.949 730.095 439.5C731.204 440.056 732.375 440.644 733.587 441.253C745.462 447.218 761.358 455.202 762.538 454.553C763.642 453.946 768.207 443.893 771.301 436.317C770.292 435.871 768.641 435.996 766.291 436.173C760.565 436.604 750.687 437.348 735.836 430.925C716.218 422.441 708.867 407.686 707.685 404.933C703.523 411.941 698.37 421.421 698.548 422.652C698.74 423.986 714.683 431.874 726.594 437.766Z" fill="#2167DB"/>
<rect x="708.656" y="412.187" width="15.75" height="3.75" transform="rotate(26.4972 708.656 412.187)" fill="#80AFFF"/>
<rect x="750.719" y="433.156" width="15.75" height="3.75" transform="rotate(26.4972 750.719 433.156)" fill="#80AFFF"/>
<path d="M747.035 371.052C747.035 371.052 747.867 388.716 746.556 390.786C745.244 392.855 738.253 390.069 737.133 388.672C736.014 387.276 735.543 367.208 736.828 367.151C737.857 367.105 743.866 369.658 747.035 371.052Z" fill="#2A7AFF"/>
<path d="M774.562 384.775C774.562 384.775 759.956 394.743 759.092 397.036C758.229 399.329 764.662 403.235 766.451 403.289C768.24 403.342 784.549 391.64 783.821 390.578C783.239 389.729 777.583 386.467 774.562 384.775Z" fill="#2A7AFF"/>
<path d="M716.658 286.642C729.517 286.316 734.07 296.69 734.739 301.918L740.209 323.432C737.537 329.513 728.111 339.296 711.783 329.774C691.372 317.872 700.583 287.05 716.658 286.642Z" fill="#FEE6CA"/>
<path d="M714.001 303.79C713.824 300.679 716.225 296.704 720.744 300.346C725.239 303.968 725.521 320.074 724.495 328.775" stroke="#C39A6A" stroke-width="2" stroke-linecap="round"/>
<path d="M860.894 358.546C853.415 348.081 842.39 350.689 837.813 353.302L817.34 361.882C814.091 367.676 811.952 381.092 829.384 388.4C851.174 397.535 870.243 371.629 860.894 358.546Z" fill="#FEE6CA"/>
<path d="M852.5 372.835C855.091 371.103 856.82 366.793 851.191 365.376C845.593 363.966 832.562 373.435 826.231 379.493" stroke="#C39A6A" stroke-width="2" stroke-linecap="round"/>
<path d="M765.152 273.754C783.044 272.83 801.102 279.871 811.739 285.173C834.619 298.055 843.028 304.297 851.184 321.491C859.304 338.609 843.913 371.071 827.065 386.633C810.216 402.194 775.534 391.939 757.901 382.265C740.267 372.59 719.262 357.991 719.599 330.075C719.937 302.16 746.76 274.704 765.152 273.754Z" fill="#FEE6CA"/>
<path d="M765.533 346.948C767.503 345.826 787.304 356.256 787.115 357.64C786.832 359.721 775.571 371.777 768.647 368.325C761.823 364.923 763.902 347.876 765.533 346.948Z" fill="#7F3E20"/>
<path d="M779.505 365.695C775.966 368.206 771.843 369.919 768.645 368.325C765.587 366.8 764.317 362.536 763.993 358.209C766.983 357.134 770.391 357.234 773.46 358.764C776.429 360.244 778.52 362.782 779.505 365.695Z" fill="#EC4E56"/>
<circle cx="765.078" cy="327.396" r="4.63828" transform="rotate(26.4972 765.078 327.396)" fill="#252C38"/>
<circle cx="803.562" cy="346.581" r="4.63828" transform="rotate(26.4972 803.562 346.581)" fill="#252C38"/>
<ellipse cx="780.687" cy="344.277" rx="3.98124" ry="2.74373" transform="rotate(26.4972 780.687 344.277)" fill="#F3BF9C"/>
<path opacity="0.3" d="M827.005 386.691C816.806 396.048 800.121 396.006 784.628 392.374C784.919 389.915 785.631 387.464 786.799 385.122C792.237 374.214 805.487 369.78 816.394 375.218C821.411 377.719 825.058 381.873 827.005 386.691Z" fill="#FA554B"/>
<path opacity="0.3" d="M740.039 370.621C729.231 361.853 720.363 350.011 719.644 332.985C724.598 331.717 730.015 332.156 734.951 334.617C745.858 340.055 750.292 353.305 744.855 364.212C743.615 366.698 741.97 368.848 740.039 370.621Z" fill="#FA554B"/>
<path d="M750.052 304.068C749.091 304.538 741.414 302.857 737.696 301.958L739.417 292.341L753.934 277.789L829.111 315.266L842.896 343.927L838.017 353.716C832.412 349.642 821.114 341.365 820.756 340.851C820.308 340.209 824.517 330.505 823.957 330.086C823.398 329.668 816.14 337.363 815.357 337.392C814.575 337.42 800.282 329.387 799.135 328.327C797.988 327.266 801.721 317.395 801.218 317.144C800.715 316.893 794.154 323.888 792.701 324.142C791.248 324.395 774.243 314.94 773.348 314.494C772.453 314.047 775.74 304.512 775.432 304.289C775.124 304.066 768.926 310.055 767.362 310.532C765.797 311.009 755.869 306.269 754.61 305.152C753.351 304.036 754.658 298.332 754.378 298.193C754.098 298.053 751.254 303.479 750.052 304.068Z" fill="#E8C8A3"/>
<path d="M749.579 299.641C748.954 299.999 743.245 297.647 740.71 296.755C737.094 295.791 728.205 292.533 727.397 290.119C726.388 287.101 754.199 216.185 825.345 249.418C882.262 276.005 869.829 331.653 854.091 354.256C844.786 348.546 826.064 336.959 825.616 336.289C825.056 335.451 828.842 322.534 828.338 322.283C827.835 322.032 818.118 330.876 817.281 331.436C816.443 331.996 803.185 324.409 802.792 323.235C802.4 322.062 805.405 310.71 804.454 310.376C803.503 310.042 796.246 318.715 794.85 319.276C793.453 319.836 777.734 310.743 776.839 310.297C776.123 309.94 778.319 301.351 779.506 297.101C776.51 300.123 770.282 306.246 769.343 306.56C768.17 306.953 758.661 302.213 756.759 301.264C755.238 300.506 757.716 290.661 759.145 285.833C756.447 289.749 750.205 299.282 749.579 299.641Z" fill="#2B4254"/>
<path d="M819.335 246.814C816.009 247.959 812.594 249.714 809.135 252.232C781.048 272.672 827.978 322.631 861.568 340.009C872.052 313.404 872.49 271.441 825.343 249.418C823.305 248.466 821.303 247.599 819.335 246.814Z" fill="#456279"/>
<rect x="733.629" y="289.455" width="10.3691" height="65" transform="rotate(26.4972 733.629 289.455)" fill="#2B4254"/>
<rect x="841.023" y="342.993" width="10.3691" height="65" transform="rotate(26.4972 841.023 342.993)" fill="#2B4254"/>
<path d="M699.345 353.498C703.348 357.102 712.244 368.933 716.528 371.422C718.101 367.206 720.341 352.283 719.482 349.738C718.409 346.557 704.599 331.773 704.053 331.038C703.507 330.302 703.222 322.143 699.53 320.845C697.079 319.983 697.015 325.73 696.354 326.26C695.693 326.79 690.737 322.507 684.628 323.668C678.519 324.829 677.301 330.2 679.897 334.934C682.494 339.667 686.677 341.451 688.256 342.662C689.835 343.873 692.697 347.512 699.345 353.498Z" fill="#FEE6CA"/>
<path d="M716.147 344.889C711.907 346.937 704.818 350.955 700.87 355.003C702.258 356.46 703.942 358.403 705.718 360.45C709.601 364.927 713.92 369.907 716.529 371.422C718.102 367.206 720.341 352.283 719.483 349.738C719.182 348.846 717.878 347.04 716.147 344.889Z" fill="#DBBB95"/>
<path d="M726.216 352.931C728.903 356.505 734.406 364.267 736.684 367.73C732.402 372.156 724.146 384.158 723.251 383.712C722.133 383.155 702.342 366.999 702.487 362.885C702.643 358.481 712.365 348.675 716.219 345.708C720.072 342.74 722.856 348.462 726.216 352.931Z" fill="#7FE8F1"/>
<path d="M730.071 375.77C729.864 376.037 729.658 376.303 729.454 376.568C726.421 380.487 723.737 383.956 723.248 383.712C722.148 383.164 703.001 367.54 702.494 363.104C708.238 367.875 718.263 375.919 721.788 377.677C724.863 379.21 728.231 377.064 730.071 375.77Z" fill="#57CBD5"/>
<path d="M817.177 413.312C811.89 412.285 797.088 412.302 792.521 410.378C794.942 406.584 805.511 395.814 808.06 394.968C811.246 393.91 831.364 396.041 832.28 396.034C833.196 396.028 839.883 391.344 843.142 393.511C845.305 394.949 840.755 398.459 840.729 399.307C840.704 400.154 847.107 401.533 849.857 407.11C852.606 412.688 849.051 416.893 843.708 417.669C838.365 418.445 834.423 416.178 832.505 415.646C830.588 415.113 825.959 415.018 817.177 413.312Z" fill="#FEE6CA"/>
<path d="M814.839 394.745C815.461 399.324 816.147 407.599 815.291 413.028C813.261 412.783 810.601 412.601 807.792 412.408C805.441 412.246 802.985 412.078 800.705 411.859L809.227 394.763C810.535 394.639 812.543 394.653 814.839 394.745Z" fill="#DBBB95"/>
<path d="M801.459 391.513C796.987 391.518 787.476 391.795 783.34 392.061C782.382 398.144 777.767 411.961 778.662 412.407C779.78 412.965 804.593 419.045 807.791 416.454C811.215 413.678 813.194 400.012 813.244 395.149C813.294 390.285 807.049 391.506 801.459 391.513Z" fill="#7FE8F1"/>
<path d="M780.897 402.178C780.809 402.504 780.72 402.829 780.632 403.151C779.327 407.933 778.173 412.164 778.661 412.407C779.761 412.956 803.763 418.842 807.611 416.577C800.343 414.861 787.885 411.698 784.36 409.941C781.285 408.408 780.971 404.426 780.897 402.178Z" fill="#57CBD5"/>
<circle cx="801.818" cy="78.3032" r="41.8184" fill="#7FE8F1"/>
<path d="M837.468 70.9113C832.054 67.7577 824.946 74.2383 831.6 77.5051C835.315 79.3288 842.972 74.1175 837.468 70.9113Z" fill="#29D09E"/>
<path d="M782.055 53.3686C784.958 51.7958 788.709 55.0625 789.919 56.5144C795.848 63.2896 789.919 67.7658 786.047 64.8622C782.176 61.9586 779.151 54.9415 782.055 53.3686Z" fill="#29D09E"/>
<path d="M761.788 90.4381C760.625 86.5975 760 82.5234 760 78.3033C760 68.7726 763.188 59.9866 768.556 52.9536C768.933 54.1675 769.708 55.3821 771.047 56.5145C777.338 61.8377 781.833 72.9604 773.708 82.647C769.941 87.1381 766.134 89.8427 761.788 90.4381Z" fill="#29D09E"/>
<path d="M775.793 61.4665C777.426 61.5269 780.088 65.1566 780.511 65.8825C783.052 71.2662 778.455 73.686 775.309 68.7256C772.164 63.7653 774.16 61.4061 775.793 61.4665Z" fill="#8BFFDC"/>
<path d="M824.097 86.7604C830.268 86.2765 835.107 86.7604 837.284 91.2368C840.43 98.375 832.808 101.52 824.097 99.4637C815.387 97.407 808.548 92.4904 810.426 87.9702C812.362 83.3123 817.927 87.2444 824.097 86.7604Z" fill="#29D09E"/>
<path d="M769.816 105.224C773.724 100.245 776.488 93.053 779.031 85.3084C784.355 69.0964 795.002 73.464 795.485 83.1307C795.52 83.8301 795.484 84.6911 795.444 85.6555C795.207 91.3641 794.82 100.692 808.068 101.52C816.313 102.036 821.228 108.01 823.856 113.851C817.457 117.826 809.906 120.122 801.819 120.122C788.977 120.122 777.487 114.333 769.816 105.224Z" fill="#29D09E"/>
<path d="M811.784 99.3346C814.881 100.883 816.653 103.267 816.018 105.565C813.9 111.312 809.364 109.134 806.642 105.868C803.92 102.601 802.407 105.021 798.536 99.8186C794.664 94.6163 798.899 90.1397 801.076 89.7768C803.254 89.4138 803.436 91.0472 804.525 93.4669C805.613 95.8865 807.912 97.3988 811.784 99.3346Z" fill="#8BFFDC"/>
<path d="M799.653 36.54C798.788 37.0252 797.959 37.5899 797.181 38.2456C791.017 45.4035 796.453 51.9894 800.199 56.5267C801.012 57.5112 801.745 58.3993 802.262 59.1758C803.116 60.4559 803.864 62.3633 804.693 64.4739C806.683 69.5447 809.135 75.7885 814.603 77.3235C827.533 80.9529 824.765 63.2893 819.684 56.9982C815.703 52.0695 822.415 53.5267 831.21 55.4362C833.291 55.8879 835.488 56.3649 837.687 56.7887C830.374 44.6237 817.048 36.4849 801.82 36.4849C801.094 36.4849 800.371 36.5034 799.653 36.54Z" fill="#29D09E"/>
<path d="M816.082 54.4495C819.856 53.5783 823.258 56.2609 824.309 60.0149C829.39 78.1626 819.469 79.0698 816.808 77.2551C811.759 73.8125 814.63 68.6047 816.082 65.4591C817.533 62.3135 811.363 55.5385 816.082 54.4495Z" fill="#8BFFDC"/>
<path d="M789.463 50.1849C785.721 48.9534 784.533 48.6272 782.192 49.4398C775.066 52.2116 776.638 42.6169 783.438 42.664C787.615 42.693 788.262 42.89 791.626 43.9155C794.99 44.941 797.128 42.3599 800.352 44.8011C804.465 47.9164 800.946 51.9005 797.599 52.3324C795.724 52.5743 794.141 51.7242 789.463 50.1849Z" fill="#8BFFDC"/>
<path d="M950.029 245.71C948.84 245.004 948.492 243.442 949.268 242.298L952.086 238.148C952.862 237.004 954.442 236.751 955.537 237.595L963.96 244.092L959.176 251.139L950.029 245.71Z" fill="#8A8DE7"/>
<path d="M955.878 237.86L950.4 245.931L950.027 245.71C948.838 245.004 948.489 243.442 949.266 242.298L952.083 238.148C952.86 237.004 954.44 236.751 955.535 237.595L955.878 237.86Z" fill="#A9ACEF"/>
<path d="M952.395 256.966L957.752 231.48L972.487 241.482L961.486 270.472C961.078 271.548 959.701 271.854 958.875 271.052L955.776 268.041C952.825 265.173 951.549 260.993 952.395 256.966Z" fill="#6265CE"/>
<path d="M952.395 256.966L957.752 231.48L972.487 241.482L961.486 270.472C961.078 271.548 959.701 271.854 958.875 271.052L955.776 268.041C952.825 265.173 951.549 260.993 952.395 256.966Z" fill="#6265CE"/>
<path d="M961.838 269.552L961.489 270.472C961.481 270.494 961.472 270.516 961.463 270.537L959.162 266.302C958.09 264.329 957.852 262.009 958.502 259.86L965.495 236.734L966.188 237.205L959.268 260.091C958.68 262.036 958.895 264.135 959.865 265.92L961.838 269.552Z" fill="#4346B4"/>
<path d="M965.697 259.376L965.405 260.145L960.121 256.558L960.57 255.896L965.697 259.376Z" fill="#4346B4"/>
<path d="M969.781 248.612L969.489 249.381L963.102 245.045L963.551 244.383L969.781 248.612Z" fill="#4346B4"/>
<path d="M976.812 206.251C975.717 205.406 974.137 205.659 973.361 206.803L970.543 210.954C969.767 212.098 970.115 213.66 971.304 214.366L980.451 219.795L985.235 212.748L976.812 206.251Z" fill="#8A8DE7"/>
<path d="M971.679 214.587L977.158 206.516L976.815 206.251C975.72 205.406 974.14 205.659 973.363 206.803L970.546 210.954C969.769 212.098 970.117 213.66 971.306 214.366L971.679 214.587Z" fill="#A9ACEF"/>
<path d="M988.147 204.297L966.439 218.684L981.174 228.686L1004.06 207.759C1004.9 206.982 1004.68 205.59 1003.63 205.119L999.688 203.35C995.933 201.666 991.577 202.023 988.147 204.297Z" fill="#6265CE"/>
<path d="M988.147 204.297L966.439 218.684L981.174 228.686L1004.06 207.759C1004.9 206.982 1004.68 205.59 1003.63 205.119L999.688 203.35C995.933 201.666 991.577 202.023 988.147 204.297Z" fill="#6265CE"/>
<path d="M1003.33 208.424L1004.06 207.759C1004.07 207.744 1004.09 207.728 1004.11 207.711L999.322 207.136C997.093 206.868 994.849 207.504 993.092 208.901L974.181 223.938L974.874 224.408L993.589 209.527C995.179 208.263 997.209 207.688 999.226 207.931L1003.33 208.424Z" fill="#4346B4"/>
<path d="M995.298 215.769L995.905 215.214L990.621 211.628L990.172 212.29L995.298 215.769Z" fill="#4346B4"/>
<path d="M986.801 223.539L987.407 222.984L981.02 218.648L980.57 219.31L986.801 223.539Z" fill="#4346B4"/>
<path d="M989.439 257.253L987.676 249.23L999.651 257.358L998.209 264.513C998.096 265.073 997.448 265.338 996.975 265.017L992.76 262.155C991.067 261.006 989.878 259.252 989.439 257.253Z" fill="#6265CE"/>
<path d="M1002.13 238.556L994.023 239.88L1006 248.008L1012.11 244.026C1012.59 243.714 1012.6 243.015 1012.13 242.694L1007.91 239.832C1006.22 238.683 1004.15 238.226 1002.13 238.556Z" fill="#6265CE"/>
<path d="M951.937 228.539C947.273 225.61 943.758 221.166 941.982 215.953L940.984 213.025C940.47 211.515 941.544 209.933 943.137 209.854L946.226 209.7C951.727 209.426 957.154 211.052 961.598 214.306L1003.82 245.22C1006.75 247.364 1007.45 251.441 1005.42 254.444C1003.38 257.447 999.329 258.297 996.255 256.367L951.937 228.539Z" fill="#8A8DE7"/>
<path d="M952.971 218.845L949.848 216.725C949.088 217.73 947.945 219.528 948.317 221.652C948.67 223.675 950.64 224.691 950.938 224.425C951.008 224.362 950.996 224.256 950.975 224.074C950.909 223.488 950.752 222.114 952.971 218.845Z" fill="#2B4254"/>
<path d="M952.971 218.845L949.848 216.725C950.501 215.648 951.75 213.922 953.861 213.483C955.872 213.065 957.544 214.521 957.407 214.895C957.374 214.984 957.271 215.012 957.094 215.06C956.525 215.214 955.189 215.576 952.971 218.845Z" fill="#2B4254"/>
<path d="M993.149 248.017C992.161 247.347 991.336 246.464 990.734 245.433L989.809 243.85L991.622 244.125C992.802 244.304 993.928 244.745 994.915 245.415L1011.03 256.35C1012.29 257.205 1013.28 258.403 1013.88 259.801L1014.11 260.347L1013.52 260.33C1012 260.286 1010.52 259.808 1009.26 258.952L993.149 248.017Z" fill="#6265CE"/>
<path d="M25.4545 208.709C26.5144 207.183 28.4858 206.587 30.2133 207.272L86.6427 229.629C89.0387 230.578 89.9248 233.512 88.4548 235.629L68.2584 264.712C67.1985 266.238 65.2271 266.834 63.4996 266.149L7.07029 243.792C4.67427 242.843 3.78812 239.909 5.25815 237.792L25.4545 208.709Z" fill="#8A8DE7"/>
<rect x="16.9375" y="197.303" width="68.9127" height="48.0065" rx="4" transform="rotate(20.4182 16.9375 197.303)" fill="#95BFFF"/>
<circle cx="40.8536" cy="231.82" r="4.45227" transform="rotate(20.4182 40.8536 231.82)" fill="#F3E3E3"/>
<path d="M2.25 236.76L66.8332 260.801L66.1685 262.587C65.3978 264.657 63.0946 265.711 61.0243 264.94L3.9385 243.689C1.86816 242.919 0.814588 240.615 1.58529 238.545L2.25 236.76Z" fill="#C1D9FE"/>
<rect x="168.246" y="404.932" width="36.2468" height="27.2698" rx="3.5" transform="rotate(20.3923 168.246 404.932)" fill="#F38B85"/>
<rect x="187.457" y="412.073" width="15.7522" height="27.2698" rx="3.5" transform="rotate(20.3923 187.457 412.073)" fill="#FA554B"/>
<rect x="127.488" y="375.234" width="60.3831" height="40.7354" rx="3.5" transform="rotate(20.3923 127.488 375.234)" fill="#FA554B"/>
<circle cx="158.377" cy="403.502" r="1.89339" transform="rotate(20.3923 158.377 403.502)" fill="#C21D25"/>
<circle cx="145.584" cy="398.746" r="1.89339" transform="rotate(20.3923 145.584 398.746)" fill="#C21D25"/>
<circle cx="171.174" cy="408.259" r="1.89339" transform="rotate(20.3923 171.174 408.259)" fill="#C21D25"/>
<rect x="136.535" y="404.679" width="50.3074" height="16.4564" rx="3.5" transform="rotate(20.3923 136.535 404.679)" fill="#FC9C89"/>
<path d="M135.316 407.96L134.284 410.734L181.439 428.264L182.47 425.49C183.144 423.678 182.221 421.663 180.409 420.989L139.816 405.899C138.004 405.225 135.989 406.148 135.316 407.96Z" fill="#FFB1A2"/>
<rect x="127.461" y="375.313" width="15.7522" height="40.8202" rx="3.5" transform="rotate(20.3923 127.461 375.313)" fill="#FC9C89"/>
<rect x="116.414" y="385.663" width="36.2468" height="27.2698" rx="3.5" transform="rotate(20.3923 116.414 385.663)" fill="#F38B85"/>
<rect x="135.625" y="392.804" width="15.7522" height="27.2698" rx="3.5" transform="rotate(20.3923 135.625 392.804)" fill="#EC453B"/>
<path d="M982.23 421.396C989.496 423.504 994.98 429.631 997.383 432.709C998.925 434.518 984.637 445.992 983.777 446.309C983.09 446.563 980.947 445.4 979.962 444.787L970.909 436.933C971.656 430.876 974.965 419.287 982.23 421.396Z" fill="#C24D81"/>
<path d="M1000.72 440.734C1000.78 439.852 998.397 434.673 997.2 432.194L977.282 442.411L966.465 457.257C966.707 458.411 968.542 461.631 969.378 462.324C970.215 463.017 976.777 465.305 979.953 466.362C980.073 465.192 981.508 461.899 982.855 459.36C984.202 456.821 986.82 453.342 988.391 451.762C987.122 456.811 984.692 467.049 985.12 467.612C985.655 468.316 992.105 469.243 992.473 468.882C992.84 468.522 1000.65 441.836 1000.72 440.734Z" fill="#FF9FA4"/>
<path d="M982.089 457.934L974.966 454.368L973.946 456.663L981.069 460.229L982.089 457.934Z" fill="#E874A7"/>
<path d="M995.461 427.678C994.928 427.374 983.068 437.544 977.204 442.668C976.692 443.115 983.442 444.174 989.079 441.47C994.716 438.767 998.169 435.011 998.381 434.432C998.593 433.853 996.127 428.059 995.461 427.678Z" fill="#E874A7"/>
<path d="M972.178 419.935C973 419.612 978.659 420.292 981.386 420.672L977.6 442.119L966.529 457.314C965.356 457.438 962.147 456.971 961.231 456.388C960.315 455.804 956.126 450.259 954.147 447.559C955.224 447.086 957.919 444.712 959.923 442.651C961.927 440.591 964.436 437.033 965.459 435.053C961.042 437.808 952.041 443.258 951.374 443.023C950.54 442.73 947.68 436.875 947.911 436.414C948.142 435.953 971.15 420.339 972.178 419.935Z" fill="#FF9FA4"/>
<path d="M961.86 443.193L967.437 448.88L965.564 450.554L959.987 444.867L961.86 443.193Z" fill="#E874A7"/>
<path d="M986.219 420.944C986.672 421.358 980.625 435.764 977.545 442.916C977.276 443.54 974.199 437.44 975.046 431.245C975.892 425.051 979.213 420.832 979.699 420.453C980.185 420.073 985.652 420.427 986.219 420.944Z" fill="#E874A7"/>
<circle cx="975.025" cy="445.654" r="1.94782" transform="rotate(36.0777 975.025 445.654)" fill="#FFBEC1"/>
<circle cx="969.666" cy="453.009" r="1.94782" transform="rotate(36.0777 969.666 453.009)" fill="#FFBEC1"/>
<path d="M217.576 73.9089C219.35 68.8602 220.316 63.4302 220.316 57.7748C220.316 51.5514 219.147 45.601 217.016 40.1311L171.504 57.5328L217.576 73.9089Z" fill="#FBBC05"/>
<path d="M212.091 71.96C213.458 67.4722 214.193 62.7093 214.193 57.7748C214.193 52.3225 213.295 47.0798 211.641 42.1862L217.015 40.1311C219.146 45.601 220.315 51.5514 220.315 57.7748C220.315 63.4302 219.349 68.8602 217.575 73.9089L212.091 71.96Z" fill="#F48401"/>
<rect x="181.496" y="60.114" width="5.80727" height="10.5257" rx="2.90363" transform="rotate(-65.5185 181.496 60.114)" fill="#29AB84"/>
<circle cx="203.048" cy="56.7024" r="7.13814" fill="#EC4E56"/>
<path d="M190.753 39.5038L145.241 56.9055L191.312 73.2816C184.658 92.2122 166.622 105.783 145.417 105.783C118.556 105.783 96.7812 84.0082 96.7812 57.1476C96.7812 30.2869 118.556 8.51196 145.417 8.51196C166.054 8.51196 183.689 21.3656 190.753 39.5038Z" fill="#F48401"/>
<path d="M182.406 42.6953L145.241 56.9055L182.877 70.2832C177.402 86.4734 162.085 98.1282 144.047 98.1282C121.414 98.1282 103.066 79.7806 103.066 57.1477C103.066 34.5148 121.414 16.1672 144.047 16.1672C161.593 16.1672 176.563 27.1938 182.406 42.6953Z" fill="#FBBC05"/>
<circle cx="121.165" cy="48.7997" r="7.13809" fill="#EC4E56"/>
<circle cx="149.385" cy="33.7975" r="6.41225" fill="#EC4E56"/>
<circle cx="150.571" cy="83.9399" r="7.71531" fill="#EC4E56"/>
<rect x="128.305" y="27.3853" width="5.80727" height="10.5257" rx="2.90363" fill="#29AB84"/>
<rect x="136.863" y="64.9082" width="5.80727" height="10.5257" rx="2.90363" transform="rotate(-65.5185 136.863 64.9082)" fill="#29AB84"/>
<rect x="161.211" y="37.0251" width="5.80727" height="10.5257" rx="2.90363" transform="rotate(-30 161.211 37.0251)" fill="#29AB84"/>
<rect x="116.305" y="78.1797" width="5.80727" height="10.5257" rx="2.90363" transform="rotate(-64.7658 116.305 78.1797)" fill="#29AB84"/>
<path d="M311.865 428.747C313.506 427.585 315.803 428.335 316.442 430.242L321.079 444.069C321.863 446.408 319.648 448.641 317.303 447.875L300.762 442.473C298.418 441.707 297.948 438.597 299.961 437.172L311.865 428.747Z" stroke="#95BFFF" stroke-width="4" stroke-linecap="round"/>
<path d="M922.357 117.836C922.158 115.836 923.944 114.209 925.918 114.594L940.231 117.39C942.652 117.863 943.5 120.892 941.676 122.553L928.811 134.269C926.987 135.929 924.051 134.803 923.806 132.349L922.357 117.836Z" stroke="#95BFFF" stroke-width="4" stroke-linecap="round"/>
<path d="M171.365 274.111C171.798 272.617 173.517 267.694 176.609 267.481C180.473 267.215 179.873 270.428 183.984 269.246C187.104 268.349 186.95 259.781 194.21 266.335" stroke="#FF9FA4" stroke-width="3" stroke-linecap="round"/>
<path d="M364.402 45.3464C365.627 44.3863 369.897 41.3936 372.531 43.0258C375.824 45.0661 373.461 47.3238 377.488 48.7649C380.545 49.8586 385.422 42.8118 387.489 52.3724" stroke="#FF9FA4" stroke-width="3" stroke-linecap="round"/>
<path d="M1037.4 327.266C1038.82 326.629 1043.68 324.751 1045.84 326.969C1048.55 329.741 1045.71 331.365 1049.28 333.732C1051.98 335.529 1058.41 329.862 1058.12 339.639" stroke="#FF9FA4" stroke-width="3" stroke-linecap="round"/>
<path d="M720.204 200.901C720.521 199.377 721.853 194.336 724.918 193.884C728.751 193.318 728.402 196.568 732.408 195.071C735.449 193.935 734.631 185.404 742.377 191.376" stroke="#FF9FA4" stroke-width="3" stroke-linecap="round"/>
<circle cx="81.522" cy="152.255" r="10.4009" fill="#7FE8F1"/>
<circle cx="893.608" cy="460.092" r="7.60791" fill="#7FE8F1"/>
<circle cx="892.393" cy="197.022" r="7.60791" fill="#7FE8F1"/>
<circle cx="293.42" cy="8.55933" r="7.60791" fill="#7FE8F1"/>
</svg>
