<svg width="1214" height="507" viewBox="0 0 1214 507" fill="none" xmlns="http://www.w3.org/2000/svg">
<path d="M846.791 364.005C846.342 362.664 863.26 330.034 871.775 313.887L991.704 378.144C984.307 394.289 969.099 426.626 967.445 426.807C965.377 427.033 954.609 421.456 953.714 421.009C952.819 420.563 956.024 412.174 955.436 411.812C954.849 411.449 949.379 418.499 948.512 418.416C947.646 418.333 912.464 402.052 905.192 398.147C897.92 394.243 862.68 374.998 862.287 374.384C861.895 373.769 864.847 364.207 864.343 363.257C863.838 362.307 857.755 370.308 856.972 370.477C856.19 370.646 847.352 365.681 846.791 364.005Z" fill="#2B4254"/>
<path d="M846.831 437.912C849.089 437.193 854.685 437.474 857.2 437.704C861.807 440.698 871.165 446.984 871.748 448.168C872.476 449.649 867.177 459.158 865.723 458.853C864.269 458.547 838.736 447.285 838.203 445.133C837.669 442.982 844.009 438.809 846.831 437.912Z" fill="#445066"/>
<path d="M907.527 468.17C906.742 465.935 903.15 461.634 901.452 459.764C896.288 457.888 885.636 454.198 884.339 454.445C882.718 454.755 878.314 464.71 879.433 465.687C880.552 466.664 904.914 480.276 906.954 479.407C908.993 478.538 908.509 470.964 907.527 468.17Z" fill="#445066"/>
<path d="M854.724 420.196C856.241 417.154 863.203 404.869 866.494 399.108L926.005 425.143C926.063 427.547 925.4 433.976 922.277 440.465C918.374 448.575 907.213 465.079 905.983 465.304C904.754 465.529 891.107 459.564 877.514 452.648C863.922 445.733 849.378 437.365 849.208 435.744C849.039 434.123 852.828 424 854.724 420.196Z" fill="#8A8DE7"/>
<path d="M856.001 417.778C855.436 418.818 854.993 419.654 854.722 420.196C853.307 423.036 850.836 429.399 849.745 433.115C854.43 435.597 873.331 445.365 890.886 449.817C902.13 452.67 909.931 453.643 914.441 453.838C914.884 453.155 915.328 452.462 915.769 451.766L889.803 432.098L863.289 418.88L856.001 417.778Z" fill="#7B7DD7"/>
<path d="M916.747 372.553C916.757 372.534 916.766 372.515 916.775 372.496C916.665 372.453 916.554 372.409 916.44 372.364C916.335 372.3 916.232 372.237 916.132 372.176C916.122 372.194 916.113 372.213 916.103 372.232C909.113 369.494 895.206 364.41 890.718 366.769C886.831 368.812 872.004 389.646 865.476 399.753C872.547 405.191 888.75 416.938 892.613 419.341C892.606 419.358 892.601 419.372 892.597 419.384C892.679 419.425 892.79 419.475 892.928 419.532C893.054 419.606 893.159 419.664 893.24 419.705C893.248 419.695 893.256 419.682 893.265 419.667C897.588 421.35 917.53 427.618 926.137 429.994C930.279 418.697 937.992 394.317 937.284 389.983C936.466 384.978 923.194 376.513 916.747 372.553Z" fill="#7FE8F1"/>
<path d="M865.982 398.975L879.535 400.302L893.048 387.484L891.252 381.561C888.479 383.949 882.182 388.716 879.186 388.675C877.394 388.65 875.725 387.664 874.469 386.585C871.258 391.094 868.214 395.552 865.982 398.975Z" fill="#57CBD5"/>
<path d="M931.22 414.943C929.667 414.57 927.996 413.835 926.952 412.488C925.115 410.12 925.132 402.223 925.37 398.571L919.559 400.702L917.456 419.208L926.486 429.028C927.865 425.21 929.571 420.158 931.22 414.943Z" fill="#57CBD5"/>
<path d="M909.384 386.934C902.049 383.278 901.322 377.142 901.655 374.701L924.643 385.463C922.465 387.589 916.552 390.508 909.384 386.934Z" fill="#FEE6CA"/>
<path d="M911.026 383.924C906.104 381.471 903.714 377.393 903.134 375.66L904.475 374.932L920.779 382.571L922.321 386.203C920.607 386.466 915.948 386.378 911.026 383.924Z" fill="#DBBB95"/>
<path d="M884.003 438.549C882.892 437.998 881.718 437.417 880.501 436.815C868.591 430.922 852.647 423.034 852.455 421.701C852.173 419.745 865.339 396.977 866.624 396.361C867.175 396.097 868.514 395.893 870.349 395.615C872.799 395.243 876.132 394.737 879.646 393.774C884.036 392.571 888.535 386.721 891.094 383.393C892.119 382.06 892.832 381.132 893.104 381.068C893.775 380.91 902.804 385.607 908.799 388.809C914.964 391.669 924.151 396.053 924.428 396.684C924.54 396.94 924.228 398.068 923.781 399.688C922.664 403.734 920.699 410.848 922.381 415.078C923.728 418.465 925.329 421.43 926.507 423.611C927.389 425.244 928.033 426.436 928.153 427.034C928.434 428.431 918.177 452.649 916.446 453.602C915.265 454.251 899.37 446.266 887.495 440.302C886.282 439.692 885.112 439.104 884.003 438.549Z" fill="#2A7AFF"/>
<path d="M896.251 415.225L896.251 415.225C899.231 417.302 900.907 419.851 899.377 420.648C896.163 422.272 888.459 418.95 887.527 423.424C887.222 428.026 899.734 426.932 901.958 422.472C903.715 418.947 898.57 416.381 896.251 415.225Z" fill="white"/>
<path d="M896.264 415.231C896.26 415.229 896.257 415.227 896.254 415.226C899.234 417.302 900.91 419.851 899.38 420.648C898.821 420.931 898.124 421.064 897.351 421.114C897.44 421.11 897.542 421.106 897.654 421.101C899.071 421.044 902.163 420.92 901.682 419.136C900.458 417.324 897.771 415.982 896.264 415.231Z" fill="#C2D9FF"/>
<path d="M891.561 410.383C889.685 414.146 894.09 418.254 896.205 419.895C893.618 416.846 892.264 413.68 893.911 412.72C897.16 410.825 903.781 418.818 906.179 414.008C908.459 409.435 894.387 404.714 891.561 410.383Z" fill="white"/>
<path d="M897.827 413.199C894.247 411.351 890.913 411.801 891.399 413.979C892.251 416.505 894.762 418.775 896.206 419.895C893.619 416.846 892.265 413.68 893.912 412.72C894.954 412.112 896.342 412.521 897.827 413.199Z" fill="#C2D9FF"/>
<path d="M880.5 436.815C881.716 437.417 882.891 437.998 884.002 438.549C885.11 439.104 886.281 439.692 887.494 440.301C899.368 446.266 915.264 454.251 916.444 453.601C917.548 452.995 922.113 442.942 925.207 435.365C924.199 434.92 922.548 435.044 920.197 435.221C914.471 435.652 904.593 436.396 889.742 429.974C870.125 421.49 862.773 406.735 861.591 403.981C857.429 410.99 852.276 420.469 852.454 421.701C852.646 423.034 868.59 430.922 880.5 436.815Z" fill="#2167DB"/>
<rect x="862.562" y="411.236" width="15.75" height="3.75" transform="rotate(26.4972 862.562 411.236)" fill="#80AFFF"/>
<rect x="904.625" y="432.205" width="15.75" height="3.75" transform="rotate(26.4972 904.625 432.205)" fill="#80AFFF"/>
<path d="M900.942 370.1C900.942 370.1 901.773 387.764 900.462 389.834C899.15 391.904 892.159 389.117 891.04 387.721C889.92 386.325 889.449 366.257 890.735 366.199C891.763 366.153 897.772 368.707 900.942 370.1Z" fill="#2A7AFF"/>
<path d="M928.469 383.824C928.469 383.824 913.862 393.792 912.998 396.085C912.135 398.378 918.568 402.283 920.357 402.337C922.146 402.391 938.455 390.688 937.728 389.627C937.145 388.778 931.489 385.516 928.469 383.824Z" fill="#2A7AFF"/>
<path d="M870.564 285.691C883.423 285.365 887.976 295.739 888.645 300.967L894.115 322.48C891.443 328.562 882.017 338.345 865.689 328.823C845.279 316.921 854.49 286.099 870.564 285.691Z" fill="#FEE6CA"/>
<path d="M867.907 302.839C867.73 299.728 870.131 295.752 874.651 299.394C879.146 303.016 879.428 319.123 878.401 327.824" stroke="#C39A6A" stroke-width="2" stroke-linecap="round"/>
<path d="M1014.8 357.595C1007.32 347.129 996.296 349.738 991.719 352.351L971.246 360.931C967.998 366.725 965.859 380.141 983.291 387.449C1005.08 396.584 1024.15 370.677 1014.8 357.595Z" fill="#FEE6CA"/>
<path d="M1006.41 371.883C1009 370.152 1010.73 365.842 1005.1 364.424C999.5 363.015 986.468 372.484 980.137 378.541" stroke="#C39A6A" stroke-width="2" stroke-linecap="round"/>
<path d="M919.058 272.803C936.95 271.879 955.008 278.919 965.645 284.222C988.525 297.104 996.934 303.346 1005.09 320.54C1013.21 337.658 997.819 370.12 980.971 385.682C964.123 401.243 929.44 390.988 911.807 381.313C894.173 371.639 873.168 357.039 873.505 329.124C873.843 301.209 900.666 273.753 919.058 272.803Z" fill="#FEE6CA"/>
<path d="M919.439 345.997C921.409 344.875 941.21 355.305 941.022 356.689C940.738 358.77 929.478 370.825 922.553 367.374C915.73 363.972 917.809 346.925 919.439 345.997Z" fill="#7F3E20"/>
<path d="M933.411 364.743C929.872 367.254 925.749 368.968 922.551 367.374C919.493 365.849 918.223 361.584 917.899 357.258C920.89 356.182 924.298 356.283 927.366 357.812C930.335 359.292 932.426 361.831 933.411 364.743Z" fill="#EC4E56"/>
<circle cx="918.984" cy="326.445" r="4.63828" transform="rotate(26.4972 918.984 326.445)" fill="#252C38"/>
<circle cx="957.468" cy="345.629" r="4.63828" transform="rotate(26.4972 957.468 345.629)" fill="#252C38"/>
<ellipse cx="934.593" cy="343.325" rx="3.98124" ry="2.74373" transform="rotate(26.4972 934.593 343.325)" fill="#F3BF9C"/>
<path opacity="0.3" d="M980.912 385.74C970.712 395.097 954.027 395.054 938.534 391.422C938.825 388.964 939.537 386.513 940.705 384.17C946.143 373.263 959.393 368.829 970.3 374.266C975.317 376.767 978.964 380.921 980.912 385.74Z" fill="#FA554B"/>
<path opacity="0.3" d="M893.946 369.67C883.137 360.902 874.269 349.059 873.55 332.034C878.505 330.766 883.921 331.205 888.857 333.666C899.764 339.103 904.198 352.353 898.761 363.261C897.522 365.747 895.876 367.896 893.946 369.67Z" fill="#FA554B"/>
<path d="M903.959 303.116C902.998 303.587 895.32 301.906 891.602 301.006L893.323 291.389L907.841 276.838L983.017 314.315L996.803 342.976L991.923 352.764C986.319 348.69 975.02 340.413 974.662 339.899C974.214 339.257 978.423 329.553 977.864 329.135C977.304 328.716 970.046 336.411 969.263 336.44C968.481 336.469 954.188 328.436 953.041 327.375C951.894 326.314 955.628 316.443 955.124 316.192C954.621 315.941 948.061 322.937 946.608 323.19C945.154 323.443 928.149 313.988 927.254 313.542C926.359 313.096 929.646 303.561 929.338 303.338C929.031 303.114 922.833 309.103 921.268 309.58C919.703 310.057 909.775 305.317 908.516 304.201C907.257 303.084 908.564 297.381 908.284 297.241C908.004 297.102 905.16 302.528 903.959 303.116Z" fill="#E8C8A3"/>
<path d="M903.486 298.689C902.86 299.048 897.152 296.695 894.616 295.804C891 294.839 882.112 291.581 881.304 289.167C880.294 286.15 908.105 215.233 979.251 248.467C1036.17 275.053 1023.73 330.701 1008 353.304C998.692 347.595 979.97 336.008 979.522 335.338C978.962 334.5 982.748 321.582 982.245 321.331C981.741 321.08 972.025 329.924 971.187 330.484C970.349 331.044 957.091 323.457 956.699 322.284C956.306 321.11 959.311 309.759 958.36 309.424C957.41 309.09 950.153 317.764 948.756 318.324C947.359 318.885 931.64 309.791 930.745 309.345C930.029 308.988 932.225 300.399 933.413 296.149C930.416 299.172 924.188 305.295 923.25 305.609C922.076 306.002 912.567 301.261 910.665 300.313C909.144 299.555 911.622 289.709 913.051 284.881C910.354 288.798 904.111 298.331 903.486 298.689Z" fill="#2B4254"/>
<path d="M973.241 245.863C969.915 247.007 966.501 248.763 963.041 251.281C934.954 271.721 981.884 321.68 1015.47 339.058C1025.96 312.453 1026.4 270.489 979.25 248.467C977.211 247.515 975.209 246.648 973.241 245.863Z" fill="#456279"/>
<rect x="887.535" y="288.503" width="10.3691" height="65" transform="rotate(26.4972 887.535 288.503)" fill="#2B4254"/>
<rect x="994.93" y="342.042" width="10.3691" height="65" transform="rotate(26.4972 994.93 342.042)" fill="#2B4254"/>
<path d="M853.252 352.547C857.254 356.151 866.15 367.982 870.435 370.471C872.008 366.254 874.247 351.331 873.389 348.786C872.315 345.605 858.505 330.822 857.959 330.086C857.413 329.351 857.128 321.192 853.436 319.894C850.986 319.032 850.921 324.778 850.26 325.309C849.599 325.839 844.644 321.556 838.535 322.717C832.426 323.878 831.207 329.249 833.804 333.982C836.4 338.716 840.583 340.5 842.162 341.711C843.741 342.922 846.604 346.56 853.252 352.547Z" fill="#FEE6CA"/>
<path d="M870.053 343.937C865.813 345.986 858.724 350.003 854.776 354.051C856.164 355.509 857.848 357.451 859.624 359.499C863.507 363.975 867.826 368.955 870.435 370.471C872.008 366.254 874.247 351.331 873.389 348.786C873.088 347.894 871.785 346.089 870.053 343.937Z" fill="#DBBB95"/>
<path d="M880.122 351.979C882.81 355.554 888.313 363.315 890.59 366.778C886.309 371.204 878.052 383.207 877.158 382.761C876.039 382.203 856.248 366.048 856.393 361.934C856.549 357.529 866.271 347.723 870.125 344.756C873.979 341.789 876.763 347.511 880.122 351.979Z" fill="#7FE8F1"/>
<path d="M883.978 374.818C883.771 375.086 883.564 375.352 883.36 375.616C880.327 379.536 877.643 383.005 877.154 382.761C876.055 382.213 856.908 366.588 856.4 362.152C862.145 366.924 872.169 374.968 875.694 376.725C878.769 378.258 882.138 376.112 883.978 374.818Z" fill="#57CBD5"/>
<path d="M971.083 412.361C965.796 411.334 950.994 411.351 946.427 409.427C948.848 405.633 959.417 394.862 961.966 394.016C965.152 392.959 985.27 395.089 986.186 395.083C987.102 395.076 993.789 390.393 997.048 392.56C999.212 393.998 994.661 397.508 994.636 398.355C994.61 399.202 1001.01 400.581 1003.76 406.159C1006.51 411.736 1002.96 415.942 997.614 416.718C992.271 417.493 988.329 415.227 986.411 414.694C984.494 414.162 979.865 414.066 971.083 412.361Z" fill="#FEE6CA"/>
<path d="M968.746 393.794C969.368 398.373 970.053 406.648 969.198 412.077C967.167 411.832 964.508 411.649 961.699 411.456C959.348 411.295 956.891 411.126 954.611 410.908L963.133 393.812C964.441 393.688 966.449 393.702 968.746 393.794Z" fill="#DBBB95"/>
<path d="M955.365 390.561C950.893 390.566 941.383 390.843 937.246 391.109C936.289 397.192 931.673 411.01 932.568 411.456C933.687 412.014 958.5 418.094 961.697 415.502C965.121 412.727 967.1 399.061 967.15 394.197C967.201 389.334 960.955 390.555 955.365 390.561Z" fill="#7FE8F1"/>
<path d="M934.804 401.226C934.715 401.553 934.626 401.878 934.538 402.2C933.233 406.981 932.079 411.212 932.567 411.456C933.667 412.004 957.669 417.89 961.517 415.626C954.249 413.91 941.792 410.747 938.267 408.99C935.191 407.456 934.878 403.475 934.804 401.226Z" fill="#57CBD5"/>
<circle cx="955.725" cy="77.3518" r="41.8184" fill="#7FE8F1"/>
<path d="M991.374 69.9599C985.96 66.8063 978.852 73.2869 985.507 76.5537C989.222 78.3774 996.878 73.1661 991.374 69.9599Z" fill="#29D09E"/>
<path d="M935.961 52.4172C938.865 50.8443 942.615 54.1111 943.825 55.563C949.754 62.3381 943.825 66.8144 939.954 63.9108C936.082 61.0072 933.057 53.9901 935.961 52.4172Z" fill="#29D09E"/>
<path d="M915.694 89.4867C914.531 85.6461 913.906 81.572 913.906 77.3519C913.906 67.8212 917.095 59.0352 922.463 52.0022C922.84 53.2161 923.615 54.4307 924.953 55.563C931.244 60.8863 935.739 72.009 927.614 81.6956C923.847 86.1866 920.04 88.8912 915.694 89.4867Z" fill="#29D09E"/>
<path d="M929.699 60.5152C931.333 60.5756 933.994 64.2053 934.418 64.9312C936.958 70.3149 932.361 72.7347 929.216 67.7743C926.07 62.814 928.066 60.4548 929.699 60.5152Z" fill="#8BFFDC"/>
<path d="M978.004 85.809C984.174 85.3251 989.013 85.809 991.191 90.2854C994.336 97.4236 986.714 100.569 978.004 98.5123C969.293 96.4556 962.454 91.539 964.332 87.0188C966.268 82.3609 971.833 86.293 978.004 85.809Z" fill="#29D09E"/>
<path d="M923.723 104.272C927.631 99.294 930.395 92.1016 932.938 84.357C938.261 68.145 948.908 72.5126 949.392 82.1793C949.426 82.8787 949.391 83.7397 949.351 84.704C949.113 90.4127 948.726 99.7409 961.974 100.569C970.219 101.084 975.135 107.058 977.762 112.899C971.363 116.874 963.812 119.17 955.725 119.17C942.883 119.17 931.394 113.382 923.723 104.272Z" fill="#29D09E"/>
<path d="M965.69 98.3832C968.787 99.9318 970.56 102.315 969.924 104.614C967.807 110.361 963.27 108.183 960.548 104.916C957.826 101.65 956.314 104.07 952.442 98.8672C948.571 93.6649 952.805 89.1883 954.983 88.8253C957.16 88.4624 957.342 90.0958 958.431 92.5154C959.52 94.9351 961.818 96.4474 965.69 98.3832Z" fill="#8BFFDC"/>
<path d="M953.56 35.5886C952.695 36.0738 951.866 36.6385 951.087 37.2942C944.923 44.4521 950.36 51.038 954.105 55.5753C954.918 56.5598 955.651 57.4479 956.169 58.2244C957.022 59.5045 957.771 61.4119 958.599 63.5225C960.59 68.5933 963.041 74.8371 968.509 76.3721C981.439 80.0015 978.671 62.3379 973.59 56.0468C969.609 51.118 976.321 52.5753 985.116 54.4848C987.197 54.9365 989.394 55.4135 991.593 55.8373C984.281 43.6723 970.954 35.5334 955.727 35.5334C955 35.5334 954.277 35.552 953.56 35.5886Z" fill="#29D09E"/>
<path d="M969.988 53.4981C973.762 52.6269 977.164 55.3094 978.215 59.0635C983.296 77.2112 973.375 78.1184 970.714 76.3037C965.665 72.8611 968.536 67.6533 969.988 64.5077C971.44 61.3621 965.27 54.587 969.988 53.4981Z" fill="#8BFFDC"/>
<path d="M943.369 49.2335C939.627 48.002 938.439 47.6758 936.099 48.4884C928.972 51.2601 930.544 41.6655 937.344 41.7126C941.521 41.7416 942.168 41.9386 945.532 42.9641C948.896 43.9896 951.035 41.4084 954.258 43.8497C958.372 46.965 954.852 50.9491 951.506 51.3809C949.63 51.6229 948.047 50.7728 943.369 49.2335Z" fill="#8BFFDC"/>
<path d="M1103.94 244.759C1102.75 244.053 1102.4 242.491 1103.17 241.347L1105.99 237.196C1106.77 236.052 1108.35 235.799 1109.44 236.644L1117.87 243.14L1113.08 250.188L1103.94 244.759Z" fill="#8A8DE7"/>
<path d="M1109.78 236.908L1104.31 244.98L1103.93 244.759C1102.74 244.053 1102.4 242.491 1103.17 241.347L1105.99 237.196C1106.77 236.052 1108.35 235.799 1109.44 236.644L1109.78 236.908Z" fill="#A9ACEF"/>
<path d="M1106.3 256.015L1111.66 230.529L1126.39 240.531L1115.39 269.521C1114.98 270.597 1113.61 270.903 1112.78 270.101L1109.68 267.09C1106.73 264.222 1105.45 260.042 1106.3 256.015Z" fill="#6265CE"/>
<path d="M1106.3 256.015L1111.66 230.529L1126.39 240.531L1115.39 269.521C1114.98 270.597 1113.61 270.903 1112.78 270.101L1109.68 267.09C1106.73 264.222 1105.45 260.042 1106.3 256.015Z" fill="#6265CE"/>
<path d="M1115.74 268.6L1115.4 269.521C1115.39 269.543 1115.38 269.564 1115.37 269.585L1113.07 265.35C1112 263.377 1111.76 261.058 1112.41 258.909L1119.4 235.783L1120.09 236.253L1113.17 259.14C1112.59 261.084 1112.8 263.183 1113.77 264.968L1115.74 268.6Z" fill="#4346B4"/>
<path d="M1119.6 258.424L1119.31 259.193L1114.03 255.606L1114.48 254.945L1119.6 258.424Z" fill="#4346B4"/>
<path d="M1123.69 247.66L1123.4 248.429L1117.01 244.093L1117.46 243.431L1123.69 247.66Z" fill="#4346B4"/>
<path d="M1130.72 205.3C1129.62 204.455 1128.04 204.708 1127.27 205.852L1124.45 210.003C1123.67 211.147 1124.02 212.709 1125.21 213.415L1134.36 218.844L1139.14 211.796L1130.72 205.3Z" fill="#8A8DE7"/>
<path d="M1125.59 213.636L1131.06 205.565L1130.72 205.3C1129.63 204.455 1128.05 204.708 1127.27 205.852L1124.45 210.003C1123.68 211.147 1124.02 212.709 1125.21 213.415L1125.59 213.636Z" fill="#A9ACEF"/>
<path d="M1142.05 203.345L1120.35 217.732L1135.08 227.734L1157.96 206.808C1158.81 206.031 1158.59 204.638 1157.54 204.167L1153.59 202.399C1149.84 200.715 1145.48 201.072 1142.05 203.345Z" fill="#6265CE"/>
<path d="M1142.05 203.345L1120.35 217.732L1135.08 227.734L1157.96 206.808C1158.81 206.031 1158.59 204.638 1157.54 204.167L1153.59 202.399C1149.84 200.715 1145.48 201.072 1142.05 203.345Z" fill="#6265CE"/>
<path d="M1157.24 207.472L1157.96 206.808C1157.98 206.792 1158 206.776 1158.01 206.76L1153.23 206.185C1151 205.917 1148.76 206.552 1147 207.95L1128.09 222.986L1128.78 223.457L1147.5 208.576C1149.09 207.312 1151.12 206.737 1153.13 206.979L1157.24 207.472Z" fill="#4346B4"/>
<path d="M1149.2 214.818L1149.81 214.263L1144.53 210.677L1144.08 211.338L1149.2 214.818Z" fill="#4346B4"/>
<path d="M1140.71 222.588L1141.31 222.033L1134.93 217.697L1134.48 218.359L1140.71 222.588Z" fill="#4346B4"/>
<path d="M1143.35 256.302L1141.58 248.278L1153.56 256.407L1152.11 263.562C1152 264.122 1151.35 264.387 1150.88 264.065L1146.67 261.204C1144.97 260.055 1143.78 258.3 1143.35 256.302Z" fill="#6265CE"/>
<path d="M1156.04 237.605L1147.93 238.928L1159.9 247.057L1166.02 243.075C1166.5 242.763 1166.51 242.063 1166.03 241.742L1161.82 238.881C1160.13 237.732 1158.06 237.275 1156.04 237.605Z" fill="#6265CE"/>
<path d="M1105.84 227.587C1101.18 224.658 1097.66 220.215 1095.89 215.001L1094.89 212.073C1094.38 210.564 1095.45 208.982 1097.04 208.902L1100.13 208.749C1105.63 208.475 1111.06 210.101 1115.5 213.354L1157.73 244.269C1160.66 246.413 1161.36 250.49 1159.32 253.493C1157.28 256.496 1153.23 257.346 1150.16 255.416L1105.84 227.587Z" fill="#8A8DE7"/>
<path d="M1106.88 217.894L1103.75 215.774C1102.99 216.779 1101.85 218.577 1102.22 220.701C1102.58 222.724 1104.55 223.74 1104.84 223.474C1104.91 223.411 1104.9 223.305 1104.88 223.123C1104.81 222.537 1104.66 221.162 1106.88 217.894Z" fill="#2B4254"/>
<path d="M1106.88 217.894L1103.75 215.774C1104.41 214.697 1105.66 212.971 1107.77 212.532C1109.78 212.114 1111.45 213.569 1111.31 213.944C1111.28 214.033 1111.18 214.061 1111 214.109C1110.43 214.263 1109.1 214.625 1106.88 217.894Z" fill="#2B4254"/>
<path d="M1147.06 247.066C1146.07 246.395 1145.24 245.512 1144.64 244.482L1143.72 242.898L1145.53 243.173C1146.71 243.352 1147.83 243.793 1148.82 244.463L1164.93 255.398C1166.19 256.254 1167.18 257.451 1167.78 258.85L1168.02 259.396L1167.43 259.378C1165.9 259.334 1164.43 258.856 1163.16 258.001L1147.06 247.066Z" fill="#6265CE"/>
<path d="M1136.14 420.444C1143.4 422.553 1148.89 428.68 1151.29 431.758C1152.83 433.566 1138.54 445.041 1137.68 445.358C1137 445.611 1134.85 444.448 1133.87 443.835L1124.82 435.982C1125.56 429.924 1128.87 418.336 1136.14 420.444Z" fill="#C24D81"/>
<path d="M1154.63 439.782C1154.68 438.901 1152.3 433.722 1151.11 431.243L1131.19 441.459L1120.37 456.305C1120.61 457.459 1122.45 460.68 1123.28 461.373C1124.12 462.066 1130.68 464.353 1133.86 465.411C1133.98 464.24 1135.41 460.948 1136.76 458.408C1138.11 455.869 1140.73 452.391 1142.3 450.811C1141.03 455.859 1138.6 466.097 1139.03 466.66C1139.56 467.364 1146.01 468.292 1146.38 467.931C1146.75 467.57 1154.56 440.884 1154.63 439.782Z" fill="#FF9FA4"/>
<path d="M1136 456.982L1128.87 453.416L1127.85 455.712L1134.98 459.278L1136 456.982Z" fill="#E874A7"/>
<path d="M1149.37 426.727C1148.83 426.422 1136.97 436.593 1131.11 441.716C1130.6 442.163 1137.35 443.223 1142.99 440.519C1148.62 437.815 1152.08 434.059 1152.29 433.481C1152.5 432.902 1150.03 427.107 1149.37 426.727Z" fill="#E874A7"/>
<path d="M1126.08 418.984C1126.91 418.661 1132.57 419.34 1135.29 419.72L1131.51 441.167L1120.44 456.363C1119.26 456.486 1116.05 456.02 1115.14 455.436C1114.22 454.853 1110.03 449.307 1108.05 446.607C1109.13 446.135 1111.82 443.76 1113.83 441.7C1115.83 439.639 1118.34 436.081 1119.36 434.102C1114.95 436.857 1105.95 442.307 1105.28 442.072C1104.45 441.779 1101.59 435.923 1101.82 435.463C1102.05 435.002 1125.06 419.388 1126.08 418.984Z" fill="#FF9FA4"/>
<path d="M1115.77 442.241L1121.34 447.929L1119.47 449.603L1113.89 443.916L1115.77 442.241Z" fill="#E874A7"/>
<path d="M1140.12 419.992C1140.58 420.406 1134.53 434.813 1131.45 441.964C1131.18 442.588 1128.11 436.488 1128.95 430.294C1129.8 424.099 1133.12 419.881 1133.61 419.501C1134.09 419.122 1139.56 419.475 1140.12 419.992Z" fill="#E874A7"/>
<circle cx="1128.93" cy="444.703" r="1.94782" transform="rotate(36.0777 1128.93 444.703)" fill="#FFBEC1"/>
<circle cx="1123.57" cy="452.057" r="1.94782" transform="rotate(36.0777 1123.57 452.057)" fill="#FFBEC1"/>
<path d="M1076.26 116.885C1076.06 114.884 1077.85 113.257 1079.82 113.643L1094.14 116.439C1096.56 116.911 1097.41 119.941 1095.58 121.601L1082.72 133.317C1080.89 134.978 1077.96 133.851 1077.71 131.397L1076.26 116.885Z" stroke="#95BFFF" stroke-width="4" stroke-linecap="round"/>
<path d="M1191.3 326.315C1192.72 325.678 1197.59 323.8 1199.75 326.018C1202.46 328.79 1199.62 330.413 1203.18 332.781C1205.89 334.577 1212.31 328.911 1212.02 338.688" stroke="#FF9FA4" stroke-width="3" stroke-linecap="round"/>
<path d="M874.111 199.949C874.427 198.426 875.759 193.385 878.825 192.932C882.657 192.367 882.308 195.617 886.315 194.12C889.356 192.984 888.537 184.453 896.284 190.425" stroke="#FF9FA4" stroke-width="3" stroke-linecap="round"/>
<circle cx="1047.51" cy="459.141" r="7.60791" fill="#7FE8F1"/>
<circle cx="1046.3" cy="196.07" r="7.60791" fill="#7FE8F1"/>
<path d="M250.278 265.425C253.659 266.845 258.158 266.236 259.985 265.753C261.552 265.437 261.564 254.627 258.763 250.497C255.962 246.366 249.618 246.407 248.679 247.81C248.201 248.525 249.311 250.088 250.13 251.037C248.882 251.104 245.884 251.986 243.882 254.978C241.38 258.718 246.052 263.649 250.278 265.425Z" fill="#FEE6CA"/>
<path d="M258.143 248.617C259.825 247.38 282.805 246.319 294.274 246.473C298.428 248.441 305.46 270.75 299.322 272.145C293.183 273.539 274.244 269.747 268.283 268.291C264.482 268.055 260.526 269.798 258.677 268.335C256.827 266.872 256.04 250.164 258.143 248.617Z" fill="#FBBC05"/>
<path d="M300.844 271.05C300.47 271.616 299.969 271.997 299.32 272.145C293.181 273.539 274.242 269.747 268.281 268.291C266.75 268.196 265.193 268.422 263.759 268.63C261.634 268.939 259.779 269.209 258.675 268.335C258.226 267.98 257.84 266.727 257.542 265.011C260.253 265.247 263.685 265.231 265.663 264.116C267.432 263.118 271.101 263.587 275.323 264.127C278.745 264.565 282.11 265.73 285.54 265.516C291.668 265.134 292.902 257.137 293.521 255.898L300.844 271.05Z" fill="#FFA53A"/>
<path d="M264.833 250.599C263.994 253.331 262.952 260.056 265.494 265.095" stroke="#E88D24" stroke-width="2" stroke-linecap="round"/>
<path d="M389.375 216.523C387.657 219.763 383.789 222.14 382.07 222.923C380.657 223.671 373.803 215.311 373.356 210.34C372.909 205.37 377.846 201.385 379.46 201.876C380.283 202.126 380.413 204.039 380.38 205.292C381.389 204.554 384.267 203.339 387.711 204.388C392.016 205.698 391.522 212.473 389.375 216.523Z" fill="#FEE6CA"/>
<path d="M372.644 208.492C370.559 208.599 352.1 222.328 343.32 229.709C341.351 233.862 350.032 255.583 355.667 252.776C361.301 249.968 373.559 235.042 377.252 230.141C380.044 227.551 384.21 226.396 384.715 224.093C385.22 221.789 375.251 208.358 372.644 208.492Z" fill="#FBBC05"/>
<path d="M353.795 252.893C354.443 253.095 355.073 253.072 355.668 252.776C361.303 249.968 373.561 235.042 377.253 230.141C378.378 229.097 379.726 228.287 380.968 227.541C382.808 226.434 384.415 225.468 384.717 224.092C384.839 223.533 384.345 222.319 383.489 220.803C381.54 222.702 378.874 224.862 376.637 225.251C374.635 225.599 372.092 228.285 369.166 231.376C366.794 233.882 364.928 236.914 362.137 238.92C357.152 242.504 351.134 237.096 349.87 236.529L353.795 252.893Z" fill="#FFA53A"/>
<path d="M368.722 214.262C371.101 215.846 376.165 220.392 377.388 225.901" stroke="#E88D24" stroke-width="2" stroke-linecap="round"/>
<path d="M315.66 232.861C308.1 236.379 292.572 244.656 292.026 250.214C291.309 257.504 301.046 296.5 302.097 297.585C302.922 298.438 325.146 290.51 335.381 286.395C345.908 283.1 368.129 275.166 368.228 273.983C368.355 272.478 351.201 236.129 346.031 230.94C342.089 226.984 324.829 230.408 316.751 232.472L316.717 232.377C316.546 232.454 316.37 232.534 316.188 232.618C315.994 232.668 315.806 232.718 315.626 232.766L315.66 232.861Z" fill="#FBBC05"/>
<path d="M300.375 292.213C303.842 289.125 308.094 285.245 308.184 284.795C308.298 284.223 312.017 276.57 313.862 272.814L308.022 256.45C307.186 260.553 304.918 269.397 302.536 271.946C300.246 274.397 297.306 274.592 295.977 274.369C297.497 281.123 299.155 287.77 300.375 292.213Z" fill="#FFA53A"/>
<path d="M358.143 251.891C356.939 252.783 354.96 253.67 352.455 253.333C348.998 252.868 341.644 247.459 338.398 244.812L344.239 261.177C348.045 262.915 355.769 266.485 356.219 266.855C356.541 267.119 361.305 267.4 365.65 267.596C363.756 263.388 361.019 257.626 358.143 251.891Z" fill="#FFA53A"/>
<path d="M305.244 327.815C307.159 326.145 314.11 322.205 317.347 320.443C318.304 319.917 327.671 320.879 332.235 321.426C333.153 325.069 334.735 332.603 333.716 333.594C332.442 334.832 304.126 338.198 302.317 336.848C300.507 335.497 302.851 329.902 305.244 327.815Z" fill="#445066"/>
<path d="M311.149 323.483C308.596 321.795 304.944 298.881 303.438 287.635L336.448 292.21C336.111 301.941 335.255 321.644 334.535 322.609C333.635 323.816 314.341 325.593 311.149 323.483Z" fill="#E874A7"/>
<path d="M336.076 301.718C335.66 311.222 335.062 321.905 334.537 322.609C334.121 323.167 329.775 323.846 324.906 324.208C327.687 318.339 329.731 305.66 330.481 299.245L336.076 301.718Z" fill="#D5588F"/>
<path d="M385.632 300.228C383.092 300.198 375.244 301.702 371.637 302.458C370.568 302.677 364.058 309.481 360.936 312.855C362.598 316.225 366.276 322.988 367.694 323.082C369.467 323.199 393.213 307.411 393.715 305.21C394.218 303.009 388.807 300.266 385.632 300.228Z" fill="#445066"/>
<path d="M378.328 300.754C379.179 297.814 367.11 277.997 360.969 268.456L338.794 293.334C345.358 300.526 358.779 314.977 359.952 315.245C361.42 315.58 377.265 304.43 378.328 300.754Z" fill="#E874A7"/>
<path d="M345.242 300.332C351.718 307.301 359.097 315.049 359.954 315.245C360.632 315.4 364.382 313.101 368.324 310.221C362.402 307.554 352.629 299.223 347.9 294.823L345.242 300.332Z" fill="#D5588F"/>
<path d="M340.71 301.327C339.543 301.746 338.31 302.19 337.034 302.65C324.532 307.155 307.797 313.185 306.702 312.399C305.097 311.247 297.804 285.978 298.25 284.624C298.441 284.045 299.223 282.938 300.293 281.422C301.723 279.397 303.667 276.644 305.408 273.443C307.583 269.444 306.482 262.146 305.855 257.995C305.604 256.334 305.43 255.176 305.572 254.936C305.922 254.342 315.566 251.086 322.029 248.982C328.363 246.519 337.889 242.933 338.536 243.171C338.798 243.267 339.396 244.274 340.254 245.718C342.397 249.328 346.165 255.674 350.38 257.392C353.755 258.768 357.003 259.668 359.391 260.33C361.18 260.825 362.486 261.187 363 261.515C364.203 262.28 374.557 286.457 374.043 288.365C373.694 289.666 356.922 295.595 344.393 300.024C343.114 300.476 341.879 300.912 340.71 301.327Z" fill="#EC4E56"/>
<path d="M330.03 273.311L330.03 273.311C333.592 272.601 336.592 273.159 336.106 274.814C335.051 278.256 327.317 281.509 329.897 285.281C333.004 288.69 340.885 278.911 339.21 274.217C337.886 270.507 332.471 272.44 330.03 273.311Z" fill="white"/>
<path d="M330.042 273.307C330.038 273.308 330.035 273.309 330.031 273.31C333.593 272.601 336.593 273.158 336.107 274.813C335.923 275.413 335.537 276.007 335.037 276.599C335.095 276.532 335.163 276.456 335.238 276.372C336.179 275.311 338.231 272.996 336.611 272.106C334.458 271.733 331.628 272.741 330.042 273.307Z" fill="#C2D9FF"/>
<path d="M323.289 273.337C324.702 277.297 330.717 276.968 333.365 276.58C329.375 276.332 326.153 275.115 326.602 273.262C327.488 269.607 337.838 270.371 336.032 265.309C334.314 260.496 321.16 267.372 323.289 273.337Z" fill="white"/>
<path d="M329.661 270.771C325.848 272.072 323.863 274.787 325.77 275.946C328.18 277.082 331.557 276.845 333.366 276.58C329.375 276.332 326.154 275.115 326.603 273.262C326.886 272.09 328.143 271.372 329.661 270.771Z" fill="#C2D9FF"/>
<path d="M337.034 302.65C338.31 302.19 339.543 301.746 340.71 301.327C341.879 300.912 343.114 300.476 344.393 300.023C356.922 295.595 373.693 289.666 374.043 288.365C374.415 286.981 369.074 273.89 365.651 266.505C362.181 273.555 353.522 284.878 337.695 291.251C319.516 298.571 305.337 295.709 300.175 293.233C302.343 301.126 305.678 311.664 306.702 312.399C307.797 313.184 324.532 307.155 337.034 302.65Z" fill="#E13328"/>
<rect x="306.16" y="297.861" width="15.75" height="3.75" transform="rotate(-19.6413 306.16 297.861)" fill="#FF9FA4"/>
<rect x="350.426" y="282.062" width="15.75" height="3.75" transform="rotate(-19.6413 350.426 282.062)" fill="#FF9FA4"/>
<path d="M303.092 241.685C303.092 241.685 316.405 253.325 316.988 255.705C317.572 258.085 310.718 261.194 308.936 261.034C307.153 260.874 292.357 247.308 293.207 246.341C293.886 245.568 299.891 243.004 303.092 241.685Z" fill="#EC4E56"/>
<path d="M332.064 231.346C332.064 231.346 329.13 248.784 330.185 250.996C331.24 253.207 338.513 251.275 339.792 250.022C341.07 248.77 343.933 228.901 342.664 228.691C341.648 228.523 335.377 230.34 332.064 231.346Z" fill="#EC4E56"/>
<path d="M321.733 247.973C315.954 249.929 310.553 246.521 308.574 244.573L329.647 237.052C329.417 239.877 327.511 246.017 321.733 247.973Z" fill="#FEE6CA"/>
<path d="M320.779 246.456C315.599 248.304 311.003 247.202 309.352 246.419L309.756 244.948L326.562 238.486L330.249 239.891C329.251 241.309 325.959 244.607 320.779 246.456Z" fill="#DBBB95"/>
<path d="M222.142 207.498C230.817 198 241.452 201.906 245.685 205.046L264.987 216.009C267.521 222.15 268.043 235.725 249.863 240.9C227.139 247.369 211.298 219.371 222.142 207.498Z" fill="#FEE6CA"/>
<path d="M232.387 222.207C230.021 220.179 228.818 215.693 234.576 214.958C240.302 214.227 252.111 225.184 257.673 231.954" stroke="#C39A6A" stroke-width="2" stroke-linecap="round"/>
<path d="M373.929 153.326C361.201 151.467 355.442 161.223 354.154 166.334L346.155 187.041C348.082 193.398 356.272 204.236 373.621 196.731C395.306 187.35 389.84 155.65 373.929 153.326Z" fill="#FEE6CA"/>
<path d="M379.078 169.854C379.625 166.786 377.716 162.552 372.794 165.629C367.899 168.688 365.696 184.646 365.677 193.407" stroke="#C39A6A" stroke-width="2" stroke-linecap="round"/>
<path d="M255.497 235.473C235.603 215.886 233.124 175.196 244.218 161.129C254.408 148.208 325.38 128.19 338.102 131.615C356.478 136.562 371.195 174.247 370.741 197.178C370.286 220.109 338.86 238.009 319.666 244.02C300.472 250.03 275.391 255.059 255.497 235.473Z" fill="#FEE6CA"/>
<circle cx="284.467" cy="200.571" r="4.63828" transform="rotate(-19.6413 284.467 200.571)" fill="#252C38"/>
<circle cx="324.967" cy="186.117" r="4.63828" transform="rotate(-19.6413 324.967 186.117)" fill="#252C38"/>
<ellipse cx="307.453" cy="201.014" rx="3.98124" ry="2.74373" transform="rotate(-19.6413 307.453 201.014)" fill="#F3BF9C"/>
<path d="M323.093 201.226C328.504 201.883 329.041 207.664 324.646 213.015C319.255 219.58 310.071 222.864 301.743 221.197C294.953 219.837 291.709 215.023 295.481 211.088C299.033 207.384 303.764 210.998 310.175 208.71C316.784 206.351 317.975 200.605 323.093 201.226Z" fill="#7F3E20"/>
<path d="M317.366 203.69L318.181 205.973C318.738 207.534 317.924 209.25 316.364 209.807L306.122 213.463C304.561 214.02 302.845 213.206 302.288 211.646L301.469 209.35C301.785 209.369 302.107 209.391 302.436 209.414C304.701 209.571 307.266 209.749 310.177 208.71C313.203 207.63 315.093 205.84 316.744 204.276C316.955 204.076 317.162 203.881 317.366 203.69Z" fill="white"/>
<path d="M322.838 214.961C317.985 219.6 311.06 222.076 304.368 221.558C305.607 218.108 308.325 215.22 312.047 213.892C315.766 212.564 319.696 213.078 322.838 214.961Z" fill="#EC4E56"/>
<path opacity="0.3" d="M300.259 248.649C286.165 250.643 271.057 249.133 257.932 237.726C260.157 231.956 264.787 227.153 271.068 224.912C282.511 220.828 295.099 226.793 299.183 238.237C300.416 241.692 300.733 245.251 300.259 248.649Z" fill="#FA554B"/>
<path opacity="0.3" d="M370.72 197.825C370.084 211.865 357.895 223.978 344.192 232.572C341.817 230.288 339.921 227.433 338.739 224.119C334.655 212.676 340.62 200.089 352.064 196.005C358.491 193.71 365.28 194.587 370.72 197.825Z" fill="#FA554B"/>
<path d="M247.727 171.924C237.778 178.262 245.346 198.721 245.32 199.394L240.264 194.894L230.978 168.877L239.338 158.46L260.957 154.328C274.85 157.555 299.48 164.761 286.86 167.779C271.085 171.551 257.675 165.586 247.727 171.924Z" fill="#E8C8A3"/>
<path d="M333.033 141.478C344.746 140.085 351.843 160.713 352.288 161.217L353.353 154.533L344.068 128.515L331.002 125.746L311.652 136.235C302.941 147.529 288.439 168.702 300.118 163.047C314.716 155.979 321.32 142.872 333.033 141.478Z" fill="#E8C8A3"/>
<path d="M331.231 138.141C318.786 140.459 322.231 153.829 295.28 165.704C270.061 173.51 259.519 161.08 249.345 164.18C239.17 167.281 239.125 180.171 241.478 186.764C243.539 192.537 251.227 206.643 247.948 208.61C244.702 210.557 237.776 206.927 235.734 205.857L235.672 205.824C233.713 204.798 225.222 197.741 221.086 190.989C217.778 185.586 217.301 173.316 217.476 167.856C214.25 168.61 207.678 170.079 207.201 169.931C206.604 169.746 205.301 167.954 211.315 158.774C216.126 151.429 223.961 147.846 227.277 146.972C227.213 143.942 227.673 135.363 230.022 125.287C232.96 112.692 247.998 96.4419 250.234 97.5018C252.023 98.3498 252.832 111.97 253.013 118.675C256.436 111.657 268.296 95.3028 288.343 86.0243C313.403 74.4262 327.342 82.989 328.267 83.7207C329.007 84.3061 321.599 96.8952 317.803 103.117C321.932 102.041 331.9 98.9321 338.909 99.0348C349.982 99.197 356.759 103.68 357.733 108.641C358.513 112.61 348.998 115.652 344.143 116.677C347.725 119.026 355.913 125.111 360.015 130.655C365.143 137.585 365.728 154.099 365.223 156.403C364.718 158.706 359.772 167.904 354.693 167.062C349.615 166.22 349.633 159.578 349.399 152.229C349.165 144.88 343.676 135.823 331.231 138.141Z" fill="#2B4254"/>
<path d="M320.168 146.445C323.393 142.267 325.798 139.152 331.228 138.141C333.695 137.681 335.888 137.669 337.822 138.001C337.863 138 337.905 138 337.946 137.999C343.745 137.948 348.395 140.482 352.775 142.869C356.83 145.079 360.653 147.162 364.938 146.947C364.299 141.271 362.852 134.493 360.012 130.655C355.91 125.111 347.722 119.026 344.14 116.677C348.995 115.652 358.509 112.61 357.73 108.641C356.756 103.68 349.979 99.197 338.906 99.0348C332.949 98.9475 324.854 101.18 320.023 102.513C319.17 102.748 318.419 102.955 317.799 103.117C321.596 96.8952 329.004 84.3061 328.264 83.7207C328.194 83.6653 328.049 83.5651 327.831 83.4321C313.033 82.9781 292.079 86.2259 278.02 100.989C255.042 125.116 264.472 144.844 268.558 151.084C268.637 151.205 268.719 151.331 268.803 151.46C271.499 155.588 276.737 163.609 285.855 167.843C288.753 167.439 291.882 166.755 295.277 165.704C310.468 159.01 316.002 151.841 320.168 146.445Z" fill="#456279"/>
<path d="M25.4545 207.758C26.5144 206.231 28.4858 205.636 30.2133 206.32L86.6427 228.677C89.0387 229.627 89.9248 232.561 88.4548 234.678L68.2584 263.761C67.1985 265.287 65.2271 265.882 63.4996 265.198L7.07029 242.841C4.67427 241.892 3.78812 238.957 5.25815 236.841L25.4545 207.758Z" fill="#8A8DE7"/>
<rect x="16.9375" y="196.352" width="68.9127" height="48.0065" rx="4" transform="rotate(20.4182 16.9375 196.352)" fill="#95BFFF"/>
<circle cx="40.8536" cy="230.868" r="4.45227" transform="rotate(20.4182 40.8536 230.868)" fill="#F3E3E3"/>
<path d="M2.25 235.808L66.8332 259.85L66.1685 261.635C65.3978 263.706 63.0946 264.759 61.0243 263.989L3.9385 242.738C1.86816 241.967 0.814588 239.664 1.58529 237.594L2.25 235.808Z" fill="#C1D9FE"/>
<rect x="168.246" y="403.98" width="36.2468" height="27.2698" rx="3.5" transform="rotate(20.3923 168.246 403.98)" fill="#F38B85"/>
<rect x="187.457" y="411.122" width="15.7522" height="27.2698" rx="3.5" transform="rotate(20.3923 187.457 411.122)" fill="#FA554B"/>
<rect x="127.488" y="374.282" width="60.3831" height="40.7354" rx="3.5" transform="rotate(20.3923 127.488 374.282)" fill="#FA554B"/>
<circle cx="158.377" cy="402.551" r="1.89339" transform="rotate(20.3923 158.377 402.551)" fill="#C21D25"/>
<circle cx="145.584" cy="397.795" r="1.89339" transform="rotate(20.3923 145.584 397.795)" fill="#C21D25"/>
<circle cx="171.174" cy="407.307" r="1.89339" transform="rotate(20.3923 171.174 407.307)" fill="#C21D25"/>
<rect x="136.535" y="403.728" width="50.3074" height="16.4564" rx="3.5" transform="rotate(20.3923 136.535 403.728)" fill="#FC9C89"/>
<path d="M135.316 407.009L134.284 409.783L181.439 427.312L182.47 424.538C183.144 422.726 182.221 420.711 180.409 420.038L139.816 404.948C138.004 404.274 135.989 405.197 135.316 407.009Z" fill="#FFB1A2"/>
<rect x="127.461" y="374.361" width="15.7522" height="40.8202" rx="3.5" transform="rotate(20.3923 127.461 374.361)" fill="#FC9C89"/>
<rect x="116.414" y="384.711" width="36.2468" height="27.2698" rx="3.5" transform="rotate(20.3923 116.414 384.711)" fill="#F38B85"/>
<rect x="135.625" y="391.853" width="15.7522" height="27.2698" rx="3.5" transform="rotate(20.3923 135.625 391.853)" fill="#EC453B"/>
<path d="M217.576 72.9575C219.35 67.9088 220.316 62.4788 220.316 56.8234C220.316 50.6 219.147 44.6495 217.016 39.1797L171.504 56.5814L217.576 72.9575Z" fill="#FBBC05"/>
<path d="M212.091 71.0085C213.458 66.5208 214.193 61.7579 214.193 56.8234C214.193 51.3711 213.295 46.1284 211.641 41.2348L217.015 39.1797C219.146 44.6495 220.315 50.6 220.315 56.8234C220.315 62.4788 219.349 67.9088 217.575 72.9575L212.091 71.0085Z" fill="#F48401"/>
<rect x="181.496" y="59.1626" width="5.80727" height="10.5257" rx="2.90363" transform="rotate(-65.5185 181.496 59.1626)" fill="#29AB84"/>
<circle cx="203.048" cy="55.7509" r="7.13814" fill="#EC4E56"/>
<path d="M190.753 38.5524L145.241 55.9541L191.312 72.3302C184.658 91.2607 166.622 104.832 145.417 104.832C118.556 104.832 96.7812 83.0568 96.7812 56.1961C96.7812 29.3354 118.556 7.56055 145.417 7.56055C166.054 7.56055 183.689 20.4142 190.753 38.5524Z" fill="#F48401"/>
<path d="M182.406 41.7439L145.241 55.9541L182.877 69.3318C177.402 85.522 162.085 97.1768 144.047 97.1768C121.414 97.1768 103.066 78.8292 103.066 56.1963C103.066 33.5634 121.414 15.2158 144.047 15.2158C161.593 15.2158 176.563 26.2424 182.406 41.7439Z" fill="#FBBC05"/>
<circle cx="121.165" cy="47.8483" r="7.13809" fill="#EC4E56"/>
<circle cx="149.385" cy="32.8461" r="6.41225" fill="#EC4E56"/>
<circle cx="150.571" cy="82.9885" r="7.71531" fill="#EC4E56"/>
<rect x="128.305" y="26.4338" width="5.80727" height="10.5257" rx="2.90363" fill="#29AB84"/>
<rect x="136.863" y="63.9568" width="5.80727" height="10.5257" rx="2.90363" transform="rotate(-65.5185 136.863 63.9568)" fill="#29AB84"/>
<rect x="161.211" y="36.0737" width="5.80727" height="10.5257" rx="2.90363" transform="rotate(-30 161.211 36.0737)" fill="#29AB84"/>
<rect x="116.305" y="77.2283" width="5.80727" height="10.5257" rx="2.90363" transform="rotate(-64.7658 116.305 77.2283)" fill="#29AB84"/>
<path d="M311.865 427.795C313.506 426.634 315.803 427.384 316.442 429.29L321.079 443.118C321.863 445.456 319.648 447.689 317.303 446.923L300.762 441.521C298.418 440.756 297.948 437.645 299.961 436.221L311.865 427.795Z" stroke="#95BFFF" stroke-width="4" stroke-linecap="round"/>
<path d="M171.365 273.16C171.798 271.665 173.517 266.743 176.609 266.53C180.473 266.264 179.873 269.476 183.984 268.295C187.104 267.398 186.95 258.829 194.21 265.384" stroke="#FF9FA4" stroke-width="3" stroke-linecap="round"/>
<path d="M364.402 44.395C365.627 43.4349 369.897 40.4422 372.531 42.0744C375.824 44.1146 373.461 46.3724 377.488 47.8135C380.545 48.9071 385.422 41.8604 387.489 51.4209" stroke="#FF9FA4" stroke-width="3" stroke-linecap="round"/>
<circle cx="81.522" cy="151.303" r="10.4009" fill="#7FE8F1"/>
<circle cx="293.42" cy="7.60791" r="7.60791" fill="#7FE8F1"/>
</svg>
