<svg width="117" height="26" viewBox="0 0 117 26" fill="none" xmlns="http://www.w3.org/2000/svg">
<path d="M7.95359 10.0286L7.95355 10.0286C12.4479 10.66 15.7467 12.4907 14.4789 14.1567C11.7881 17.604 1.31101 18.1587 2.76413 23.4352C4.99044 28.5149 18.3857 20.6817 18.3857 14.7319C18.3857 10.0286 11.1944 10.0286 7.95359 10.0286Z" fill="white"/>
<path d="M7.96741 10.0286C7.96281 10.0286 7.95821 10.0286 7.95361 10.0286C12.448 10.66 15.7468 12.4907 14.479 14.1567C14.0102 14.7573 13.305 15.2701 12.4678 15.7354C12.5646 15.6834 12.6762 15.6248 12.7994 15.5602C14.354 14.7446 17.7454 12.9653 16.2108 11.315C13.8307 10.0314 10.0738 10.0286 7.96741 10.0286Z" fill="#D1D1D1"/>
<path d="M0 7.35295C0 12.3727 7.22296 14.4161 10.5061 15.0429C5.90969 13.1625 2.62653 10.5017 3.93448 8.59816C6.51436 4.84359 18.3857 9.85626 18.3857 3.43949C18.3857 -2.66083 0 -0.209196 0 7.35295Z" fill="white"/>
<path d="M8.58411 7.02479C3.54575 6.95729 0.0656872 9.2137 1.82507 11.2821C4.1871 13.5268 8.26472 14.6149 10.5061 15.0428C5.90969 13.1624 2.62653 10.5016 3.93448 8.59809C4.76168 7.39425 6.54408 7.09173 8.58411 7.02479Z" fill="#D1D1D1"/>
<path d="M90.3689 9.36005H92.5408V18.3022H90.3689V9.36005Z" fill="white"/>
<path d="M91.4381 5.76648C91.7946 5.76648 92.0897 5.88905 92.3236 6.1342C92.5575 6.37933 92.6745 6.69134 92.6745 7.07019C92.6745 7.43791 92.5575 7.74433 92.3236 7.98948C92.0897 8.23462 91.7946 8.35719 91.4381 8.35719C91.0817 8.35719 90.7865 8.23462 90.5526 7.98948C90.3187 7.74433 90.2018 7.43791 90.2018 7.07019C90.2018 6.69134 90.3187 6.37933 90.5526 6.1342C90.7865 5.88905 91.0817 5.76648 91.4381 5.76648Z" fill="white"/>
<path fill-rule="evenodd" clip-rule="evenodd" d="M87.4677 9.87819C86.8328 9.48819 86.0977 9.29319 85.2623 9.29319C84.594 9.29319 84.0037 9.42691 83.4913 9.69434C82.9901 9.95062 82.578 10.3295 82.255 10.8309V5.90019H80.083V18.3022H82.255V16.848C82.5891 17.3495 83.0124 17.7339 83.5247 18.0013C84.0371 18.2576 84.6274 18.3858 85.2957 18.3858C86.1311 18.3858 86.8663 18.1963 87.5011 17.8175C88.136 17.4386 88.6261 16.9093 88.9714 16.2296C89.3167 15.5499 89.4894 14.7643 89.4894 13.8729C89.4894 12.9703 89.3111 12.1736 88.9547 11.4828C88.6094 10.7919 88.1138 10.257 87.4677 9.87819ZM86.5822 15.7616C86.1144 16.263 85.5129 16.5138 84.7778 16.5138C84.0315 16.5138 83.4245 16.263 82.9567 15.7616C82.4889 15.2602 82.255 14.6083 82.255 13.806C82.255 13.0149 82.4889 12.3686 82.9567 11.8672C83.4245 11.3658 84.0315 11.1151 84.7778 11.1151C85.5129 11.1151 86.1144 11.3658 86.5822 11.8672C87.05 12.3686 87.2839 13.0149 87.2839 13.806C87.2839 14.5972 87.05 15.2491 86.5822 15.7616Z" fill="white"/>
<path d="M33.2921 8.75834C33.927 8.9589 34.5451 9.24305 35.1466 9.61077L36.0488 7.65519C35.4696 7.27634 34.8069 6.97548 34.0606 6.75262C33.3255 6.52977 32.5792 6.41834 31.8218 6.41834C30.953 6.41834 30.1844 6.55762 29.5161 6.83619C28.859 7.11477 28.3466 7.51034 27.979 8.02291C27.6226 8.52434 27.4444 9.11491 27.4444 9.79462C27.4444 10.5301 27.6226 11.1262 27.979 11.583C28.3355 12.0288 28.7643 12.3631 29.2655 12.5859C29.7668 12.8088 30.4128 13.0372 31.2036 13.2712C31.7828 13.4383 32.2395 13.5888 32.5736 13.7225C32.9078 13.8562 33.1807 14.0345 33.3923 14.2573C33.6151 14.469 33.7265 14.7421 33.7265 15.0763C33.7265 15.4886 33.5482 15.8173 33.1918 16.0625C32.8354 16.2965 32.3453 16.4135 31.7216 16.4135C31.0867 16.4135 30.4016 16.2575 29.6665 15.9455C28.9314 15.6335 28.2686 15.2045 27.6783 14.6585L26.7427 16.5639C27.3887 17.1322 28.1461 17.5891 29.0149 17.9345C29.8837 18.2688 30.7748 18.4359 31.6881 18.4359C32.5569 18.4359 33.3255 18.2966 33.9938 18.018C34.6732 17.7395 35.2023 17.3383 35.581 16.8146C35.9709 16.2798 36.1658 15.6558 36.1658 14.9426C36.1658 14.1961 35.9876 13.5943 35.6311 13.1375C35.2747 12.6806 34.8403 12.3352 34.3279 12.1012C33.8267 11.8672 33.1807 11.6332 32.3899 11.3992C31.8218 11.2321 31.3707 11.0816 31.0365 10.9479C30.7135 10.8031 30.4406 10.6248 30.2179 10.413C30.0062 10.1902 29.9004 9.91719 29.9004 9.59405C29.9004 9.23748 30.0564 8.9589 30.3682 8.75834C30.6801 8.55777 31.1034 8.45748 31.638 8.45748C32.117 8.45748 32.6683 8.55777 33.2921 8.75834Z" fill="white"/>
<path d="M39.0717 9.36005L36.8329 9.37676L40.1076 18.3022H42.3297L44.4516 12.0009L46.5902 18.3022H48.8123L51.034 12.1728L53.5451 18.1518L53.2778 18.7368C52.9993 19.3385 52.5649 19.6393 51.9746 19.6393C51.7741 19.6393 51.5848 19.6003 51.4065 19.5223C51.2283 19.4555 51.0334 19.3441 50.8218 19.188L49.8861 20.8428C50.2314 21.1213 50.5767 21.3219 50.922 21.4445C51.2784 21.5782 51.6739 21.6451 52.1083 21.6451C52.8211 21.6451 53.4337 21.4556 53.9461 21.0768C54.4696 20.7091 54.8706 20.1575 55.149 19.4221L59.1589 9.36005H56.9702L54.6478 15.8619L52.1083 9.36005H49.8527L49.8596 9.37653L47.7263 16.1126L45.571 9.36005H43.3823L41.2604 16.1126L39.0717 9.36005Z" fill="white"/>
<path fill-rule="evenodd" clip-rule="evenodd" d="M67.5451 9.87819C66.9102 9.48819 66.175 9.29319 65.3396 9.29319C64.6713 9.29319 64.081 9.42691 63.5686 9.69434C63.0674 9.95062 62.6553 10.3295 62.3323 10.8309V9.36005H60.1603V21.5448H62.3323V16.848C62.6664 17.3495 63.0897 17.7339 63.6021 18.0013C64.1144 18.2576 64.7048 18.3858 65.3731 18.3858C66.2084 18.3858 66.9436 18.1963 67.5785 17.8175C68.2134 17.4386 68.7034 16.9093 69.0488 16.2296C69.394 15.5499 69.5667 14.7643 69.5667 13.8729C69.5667 12.9703 69.3885 12.1736 69.032 11.4828C68.6867 10.7919 68.1911 10.257 67.5451 9.87819ZM66.6595 15.7616C66.1917 16.263 65.5903 16.5138 64.8551 16.5138C64.1089 16.5138 63.5018 16.263 63.034 15.7616C62.5662 15.2602 62.3323 14.6083 62.3323 13.806C62.3323 13.0149 62.5662 12.3686 63.034 11.8672C63.5018 11.3658 64.1089 11.1151 64.8551 11.1151C65.5903 11.1151 66.1917 11.3658 66.6595 11.8672C67.1274 12.3686 67.3613 13.0149 67.3613 13.806C67.3613 14.5972 67.1274 15.2491 66.6595 15.7616Z" fill="white"/>
<path fill-rule="evenodd" clip-rule="evenodd" d="M75.0077 9.29319C76.4334 9.29319 77.5027 9.69991 78.2156 10.5133C78.9396 11.3268 79.3016 12.4689 79.3016 13.9398C79.3016 14.2295 79.296 14.4468 79.2848 14.5916H72.6853C72.8301 15.2268 73.1253 15.7282 73.5708 16.0959C74.0275 16.4525 74.5844 16.6308 75.2416 16.6308C75.6983 16.6308 76.1327 16.5472 76.5448 16.3801C76.9681 16.2018 77.3356 15.9511 77.6475 15.6279L78.817 16.848C78.3715 17.3383 77.8257 17.7172 77.1797 17.9846C76.5448 18.2521 75.8375 18.3858 75.0578 18.3858C74.1445 18.3858 73.3369 18.1963 72.6352 17.8175C71.9446 17.4386 71.41 16.9093 71.0313 16.2296C70.6526 15.5388 70.4632 14.7476 70.4632 13.8562C70.4632 12.9648 70.6526 12.1736 71.0313 11.4828C71.4211 10.7919 71.9613 10.257 72.6519 9.87819C73.3425 9.48819 74.1278 9.29319 75.0077 9.29319ZM77.3133 13.1375C77.2911 12.4801 77.0739 11.9563 76.6618 11.5663C76.2496 11.1763 75.7038 10.9813 75.0244 10.9813C74.3895 10.9813 73.8549 11.1763 73.4205 11.5663C72.9972 11.9452 72.7354 12.4689 72.6352 13.1375H77.3133Z" fill="white"/>
<path d="M97.2188 18.4025C97.9985 18.4025 98.7448 18.1852 99.4576 17.7506L98.9564 16.1126C98.4441 16.3578 98.0208 16.4803 97.6866 16.4803C97.3748 16.4803 97.1409 16.3968 96.9849 16.2296C96.829 16.0513 96.751 15.7561 96.751 15.3438V11.3156H99.3073V9.72777H96.751V7.27077H94.5957V9.72777H93.3259L93.3427 11.3156H94.5957V15.7282C94.5957 16.6085 94.8408 17.2771 95.3309 17.7339C95.821 18.1796 96.4503 18.4025 97.2188 18.4025Z" fill="white"/>
<path fill-rule="evenodd" clip-rule="evenodd" d="M104.807 9.29319C106.232 9.29319 107.302 9.69991 108.015 10.5133C108.739 11.3268 109.101 12.4689 109.101 13.9398C109.101 14.2295 109.095 14.4468 109.084 14.5916H102.484C102.629 15.2268 102.924 15.7282 103.37 16.0959C103.827 16.4525 104.383 16.6308 105.041 16.6308C105.497 16.6308 105.932 16.5472 106.344 16.3801C106.767 16.2018 107.135 15.9511 107.447 15.6279L108.616 16.848C108.171 17.3383 107.625 17.7172 106.979 17.9846C106.344 18.2521 105.637 18.3858 104.857 18.3858C103.943 18.3858 103.136 18.1963 102.434 17.8175C101.744 17.4386 101.209 16.9093 100.83 16.2296C100.452 15.5388 100.262 14.7476 100.262 13.8562C100.262 12.9648 100.452 12.1736 100.83 11.4828C101.22 10.7919 101.76 10.257 102.451 9.87819C103.142 9.48819 103.927 9.29319 104.807 9.29319ZM107.112 13.1375C107.09 12.4801 106.873 11.9563 106.461 11.5663C106.049 11.1763 105.503 10.9813 104.823 10.9813C104.189 10.9813 103.654 11.1763 103.219 11.5663C102.796 11.9452 102.534 12.4689 102.434 13.1375H107.112Z" fill="white"/>
<path d="M114.744 11.1819C115.212 11.3268 115.663 11.5273 116.098 11.7836L116.883 10.2125C116.437 9.91162 115.925 9.67763 115.346 9.51048C114.778 9.34334 114.199 9.25977 113.608 9.25977C112.639 9.25977 111.832 9.49376 111.186 9.96176C110.551 10.4186 110.233 11.0872 110.233 11.9675C110.233 12.5358 110.372 12.9982 110.651 13.3548C110.929 13.7002 111.258 13.962 111.637 14.1403C112.015 14.3075 112.505 14.4802 113.107 14.6585C113.731 14.8479 114.182 15.0206 114.46 15.1766C114.739 15.3326 114.878 15.5666 114.878 15.8786C114.878 16.1572 114.755 16.3689 114.51 16.5138C114.276 16.6475 113.959 16.7143 113.558 16.7143C113.057 16.7143 112.528 16.6196 111.971 16.4302C111.414 16.2296 110.935 15.9566 110.534 15.6112L109.782 17.1322C110.239 17.5333 110.796 17.8453 111.453 18.0682C112.11 18.2799 112.784 18.3858 113.474 18.3858C114.488 18.3858 115.329 18.1518 115.997 17.6838C116.666 17.2158 117 16.5472 117 15.678C117 15.0875 116.849 14.6139 116.549 14.2573C116.259 13.8896 115.914 13.6166 115.513 13.4383C115.112 13.2489 114.599 13.0595 113.976 12.8701C113.385 12.7029 112.951 12.5469 112.673 12.4021C112.405 12.246 112.272 12.0288 112.272 11.7502C112.272 11.4828 112.377 11.2878 112.589 11.1652C112.812 11.0315 113.107 10.9646 113.474 10.9646C113.864 10.9646 114.288 11.037 114.744 11.1819Z" fill="white"/>
</svg>
